<?xml version="1.0" standalone="no"?><!DOCTYPE svg PUBLIC "-//W3C//DTD SVG 1.1//EN" "http://www.w3.org/Graphics/SVG/1.1/DTD/svg11.dtd"><svg t="1624695101628" class="icon" viewBox="0 0 1024 1024" version="1.1" xmlns="http://www.w3.org/2000/svg" p-id="2066" xmlns:xlink="http://www.w3.org/1999/xlink" width="200" height="200"><defs><style type="text/css"></style></defs><path d="M512 1020.8969696A508.8969696 508.8969696 0 1 1 878.90230293 159.49575787a36.9881216 36.9881216 0 0 1 0 52.62739413 37.48460587 37.48460587 0 0 1-52.62739413 0A430.45236373 430.45236373 0 0 0 512 77.57575787 434.42424213 434.42424213 0 1 0 946.42424213 512a449.5670304 449.5670304 0 0 0-3.72363626-57.84048533 37.23636373 37.23636373 0 1 1 74.47272746-9.68145387A509.14521173 509.14521173 0 0 1 512 1020.8969696z" p-id="2067"></path><path d="M953.3750304 382.41745493a37.48460587 37.48460587 0 0 1-35.0021824-24.8242432 413.8201216 413.8201216 0 0 0-20.3558784-44.18715093 37.23636373 37.23636373 0 1 1 66.28072747-34.0092128 466.19927253 466.19927253 0 0 1 24.82424213 53.3721216 37.23636373 37.23636373 0 0 1-21.5970912 47.91078827 36.24339413 36.24339413 0 0 1-14.1498176 1.73769706z" p-id="2068"></path><path d="M553.45648533 747.83030293m-35.25042453 0l-0.24824213 0q-35.25042453 0-35.25042454-35.25042453l0-401.1597568q0-35.25042453 35.25042454-35.25042453l0.24824213 0q35.25042453 0 35.25042453 35.25042453l0 401.1597568q0 35.25042453-35.25042453 35.25042453Z" p-id="2069"></path><path d="M753.7881216 476.50133333m0 35.25042454l0 0.24824213q0 35.25042453-35.25042453 35.25042453l-401.15975787 0q-35.25042453 0-35.25042453-35.25042453l0-0.24824213q0-35.25042453 35.25042453-35.25042454l401.15975787 0q35.25042453 0 35.25042453 35.25042454Z" p-id="2070"></path></svg>