<?xml version="1.0" standalone="no"?><!DOCTYPE svg PUBLIC "-//W3C//DTD SVG 1.1//EN" "http://www.w3.org/Graphics/SVG/1.1/DTD/svg11.dtd"><svg t="1624695098760" class="icon" viewBox="0 0 1024 1024" version="1.1" xmlns="http://www.w3.org/2000/svg" p-id="1935" xmlns:xlink="http://www.w3.org/1999/xlink" width="200" height="200"><defs><style type="text/css"></style></defs><path d="M825.70421374 355.78592845a647.91468047 647.91468047 0 0 0-74.90433013-71.05810149c-3.80737803-3.10806317-6.72118718-5.2837079-10.10120556-7.88671127 47.35911713-17.2497524 80.49884383-58.54814557 80.49884383-107.46129376 0-65.81324419-58.97550418-116.20272329-128.98463443-116.20272329a117.13514174 117.13514174 0 0 0-44.25105293 8.58602612 91.80442508 91.80442508 0 0 0-14.60789844 7.38165041c-2.48645054 1.08782185-7.69245725-0.15540342-9.12993652-2.02024132l-0.03885061 0.0388506a148.02152251 148.02152251 0 0 0-25.13646364-29.75970729C576.78718021 16.89045816 550.4463429 4.22509985 520.29812757 4.22509985c-30.10936473 0-56.48905364 12.66535831-78.75055874 33.17857731a147.08910305 147.08910305 0 0 0-24.63140283 29.13809464l-0.03885058-0.03885059c-2.05909191 2.52530114-7.30394923 3.84622862-9.12993652 2.91380916a96.77732617 96.77732617 0 0 0-15.11295827-7.65360563 117.71790377 117.71790377 0 0 0-44.25105396-8.5860261c-70.00912921 0-128.94578281 50.38947911-128.9457828 116.20272329 0 41.80345403 24.32059701 78.0123933 60.91804431 98.44791006-3.92392982 2.99151139-7.84786066 5.98302173-11.69408928 9.05223532a596.35967729 596.35967729 0 0 0-74.74892671 70.35878664C124.71934962 424.82378761 82.68279099 513.55900014 82.68279099 612.04576078c0 273.12107669 192.00062023 402.99927897 423.27939335 402.99927898 96.93272958 0 191.68981443-20.51321899 268.34242964-68.88245678 104.0812754-65.69669137 163.25103359-176.03294473 163.25103358-334.1168222 0-92.62029174-42.30851382-178.59709646-111.85143382-256.25983233z m-319.7420294 598.22451521c-203.5393061 0-365.97447304-109.8311925-365.97447304-342.00353347 0-80.61539563 35.50962546-155.55857635 95.49525031-222.80929983a538.00578572 538.00578572 0 0 1 67.32842465-63.40449484 475.76681496 475.76681496 0 0 1 29.7597073-21.60104083c32.28500946-22.65001209 29.25464748-62.51092598-2.36989771-79.52757377l0.07770119-0.34965744-0.19425401-0.11655283-0.38850803-0.194254-1.08782185-0.5439104-1.51518151-0.77701606v0.0388506l-0.81586663-0.42735862-0.62161265-0.23310462-0.11655178-0.07770119-0.0388506 0.0388506-3.30231822-1.35977808c-27.93371999-8.66372731-45.45542863-29.64315551-45.45542759-51.32189754 0-28.82728888 30.84753018-55.16812616 71.6408625-55.1681272a63.24909143 63.24909143 0 0 1 30.84753019 7.96441244l3.49657121 2.13679415c25.91347867 13.40352378 59.28631102 4.97290107 77.85698987-18.33757424l2.40874933-3.53542283a90.91085623 90.91085623 0 0 1 16.04537774-18.84263406c12.66535831-11.69408929 26.4962407-18.37642485 41.29839316-18.37642589 14.72445022 0 28.55533264 6.68233659 41.25954259 18.37642589 8.04211466 7.38165042 13.63662838 14.76330186 16.00652609 18.84263406l1.94254013 2.91381018c18.06561905 23.932089 51.78810778 31.93535204 77.77928868 19.26999372l4.07933323-2.44760098a63.90955466 63.90955466 0 0 1 30.80867856-7.96441244c40.83218395 0 71.67971413 26.37968893 71.67971413 55.20697779 0 21.63989144-17.56055821 42.61932067-45.45542862 51.28304695l-4.07933323 1.63173329a89.51222754 89.51222754 0 0 1-15.3849145 6.37152974c-40.17172072 13.17041917-47.0094597 56.64445707-14.45249502 80.92620245 3.14691377 2.13679414 6.21612737 4.31243783 9.28533994 6.48808258a585.28720167 585.28720167 0 0 1 90.36694478 81.78092074c60.41298347 67.4061269 96.07801234 139.90170664 96.07801233 214.14557249 0 244.17723603-155.01466491 342.00353346-374.28854292 342.00353349z m119.42733929-359.21443528c13.17041917 0 23.85438676-11.57753647 23.85438676-25.91347866 0-14.25824102-10.68396863-25.87462808-23.85438676-25.87462911h-97.55434221l90.56119878-98.13710324a27.42866019 27.42866019 0 0 0 0-36.59744731 22.65001209 22.65001209 0 0 0-33.80018994 0l-78.59515532 85.19978971-78.63400491-85.19978971a22.65001209 22.65001209 0 0 0-33.80019096 0 27.50636138 27.50636138 0 0 0 0 36.59744731l90.60005042 98.13710324H386.57369668c-13.17041917 0-23.89323839 11.61638707-23.89323839 25.87462911 0 14.33594324 10.72281922 25.91347867 23.89323839 25.91347866h95.5341009v25.87462809H386.57369668c-13.17041917 0-23.89323839 11.57753647-23.89323839 25.87462911 0 14.29709161 10.72281922 25.87462808 23.89323839 25.87462808h95.5341009v74.55467271c0 10.91707324 10.68396863 19.77505353 23.85438676 19.77505351 13.20926977 0 23.89323839-8.85798133 23.89323839-19.77505351v-74.55467271h95.5341009c13.17041917 0 23.85438676-11.57753647 23.85438676-25.87462808 0-14.29709161-10.68396863-25.87462808-23.85438676-25.87462911h-95.5341009v-25.87462809h95.5341009z" p-id="1936"></path></svg>