<?xml version="1.0" standalone="no"?><!DOCTYPE svg PUBLIC "-//W3C//DTD SVG 1.1//EN" "http://www.w3.org/Graphics/SVG/1.1/DTD/svg11.dtd"><svg t="1624695110552" class="icon" viewBox="0 0 1024 1024" version="1.1" xmlns="http://www.w3.org/2000/svg" p-id="2332" xmlns:xlink="http://www.w3.org/1999/xlink" width="200" height="200"><defs><style type="text/css"></style></defs><path d="M835.37566025 589.6722963c-38.83614815 0-76.63666569-10.74466765-109.90629927-31.19837235-21.10097383-12.94538272-39.22450963-29.12711111-53.59388445-47.76846222-36.89434075 49.0630005-95.7958321 78.96683457-159.87547653 78.96683457s-122.98113581-29.90383408-159.87547653-78.96683457c-14.36937482 18.64135111-32.49291061 34.8230795-53.59388445 47.76846222-35.08198717 21.48933531-75.21267358 32.3634568-116.12008297 31.06891852-52.29934617-1.55344592-100.45616987-23.81950419-135.66761087-62.65565234C12.82604247 489.47503408-5.81530864 440.54148741-5.81530864 389.01886419v-6.47269136c0-3.75416098 0.51781531-7.50832197 1.55344592-11.0035753l73.40032-248.03353284c8.80286025-29.90383408 27.96202667-56.57132247 53.85279211-75.08321975 25.89076543-18.51189728 56.57132247-28.35038815 88.80532543-28.35038814h600.27739654c32.23400297 0 62.91456 9.83849086 88.80532544 28.35038814 25.89076543 18.64135111 45.04993185 45.3088395 53.85279209 75.08321975l73.40032 248.03353284c1.03563061 3.62470717 1.55344592 7.24941431 1.55344593 11.0035753v6.47269136c0 51.5226232-18.64135111 100.45616987-52.55825384 137.86832594-35.21144098 38.96560197-83.36826469 61.23166025-135.66761085 62.65565234-1.94180741 0.12945383-4.01306864 0.12945383-6.08432988 0.12945383zM352.25397728 408.43693827c20.97152 0 39.74232494 12.42756741 48.1568237 31.71618765 18.77080494 43.62593975 62.65565235 71.71742025 111.58919902 71.71742025 48.93354667 0 92.81839408-28.22093431 111.58919902-71.71742025 8.28504494-19.28862025 27.1853037-31.71618765 48.1568237-31.71618765 20.84206617 0 39.61287111 12.42756741 47.89791604 31.71618765 18.90025876 43.75539358 68.09271309 73.40032 119.6153363 71.84687408 63.30292148-1.81235358 112.88373728-55.92405333 112.88373729-122.98113581v-0.77672295L880.29613827 145.64566914c-8.28504494-28.22093431-36.37652543-47.76846222-68.22216691-47.76846223H211.79657482c-31.84564148 0-59.80766815 19.67698173-68.22216692 47.76846223L71.85698765 388.11268741v0.77672296c0 67.05708247 49.58081581 121.16878222 112.88373729 122.9811358 51.5226232 1.55344592 100.84453136-28.0914805 119.6153363-71.84687407 8.28504494-19.15916642 27.05584987-31.58673383 47.89791604-31.58673383zM809.74380247 1003.9245432H214.25619753c-78.57847309 0-142.39920987-63.8207368-142.39920988-142.39920987V680.28997531c0-21.48933531 17.34681283-38.83614815 38.83614816-38.83614814s38.83614815 17.34681283 38.83614814 38.83614814v181.23535802c0 35.7292563 28.99765728 64.72691358 64.72691358 64.72691358h595.48760494c35.7292563 0 64.72691358-28.99765728 64.72691358-64.72691358V680.28997531c0-21.48933531 17.34681283-38.83614815 38.83614814-38.83614814s38.83614815 17.34681283 38.83614816 38.83614814v181.23535802c0 78.57847309-63.8207368 142.39920987-142.39920988 142.39920987z" p-id="2333"></path></svg>