<?xml version="1.0" standalone="no"?><!DOCTYPE svg PUBLIC "-//W3C//DTD SVG 1.1//EN" "http://www.w3.org/Graphics/SVG/1.1/DTD/svg11.dtd"><svg t="1628357112839" class="icon" viewBox="0 0 1538 1024" version="1.1" xmlns="http://www.w3.org/2000/svg" p-id="2849" xmlns:xlink="http://www.w3.org/1999/xlink" width="300.390625" height="200"><defs><style type="text/css"></style></defs><path d="M1340.250505 707.490909l-528.549495-122.569697v-55.078788c129.034343-20.428283 227.814141-130.585859 227.814142-263.240404C1039.515152 119.466667 918.238384 0 769.034343 0S498.553535 119.466667 498.553535 266.60202h85.333334c0-100.589899 83.006061-182.30303 185.147474-182.30303s185.147475 81.713131 185.147475 182.30303-83.006061 182.30303-185.147475 182.303031h-42.666666v136.016161L191.353535 708.525253c-110.933333 20.169697-191.353535 115.587879-191.353535 226.521212v88.953535h1538.068687v-82.488889c0-114.812121-83.264646-213.333333-197.818182-234.020202M85.333333 939.70101v-4.654545c0-70.335354 51.2-130.844444 121.535354-143.773738l2.068687-0.258586 1.810101-0.517171 558.286868-129.034344 551.822223 127.741414 1.810101 0.517172 2.068687 0.517172c73.438384 13.187879 126.965657 76.024242 127.741414 149.462626H85.333333z" p-id="2850"></path></svg>