<?xml version="1.0" standalone="no"?><!DOCTYPE svg PUBLIC "-//W3C//DTD SVG 1.1//EN" "http://www.w3.org/Graphics/SVG/1.1/DTD/svg11.dtd"><svg t="1624678327301" class="icon" viewBox="0 0 1024 1024" version="1.1" xmlns="http://www.w3.org/2000/svg" p-id="4011" xmlns:xlink="http://www.w3.org/1999/xlink" width="200" height="200"><defs><style type="text/css"></style></defs><path d="M998.18698524 356.68746242l-209.15595946-256.31857778a94.32523662 94.32523662 0 0 0-73.8197504-34.85932657h-13.32856605a95.44371769 95.44371769 0 0 0-86.12304213 54.33953848 117.95314915 117.95314915 0 0 1-101.5021568 68.69337885c-43.06152107-2.05054862-83.0472192-28.70768071-101.5021568-68.69337885a95.44371769 95.44371769 0 0 0-86.12304214-54.33953848h-12.30329173a94.32523662 94.32523662 0 0 0-73.8197504 34.85932657l-208.13068515 256.31857778a96.16607005 96.16607005 0 0 0-20.50548623 75.87029902c4.10109725 26.65713209 20.50548622 50.23844125 43.06152107 65.61755591l127.13401458 79.97139627v272.72296675c0 56.39008711 46.137344 102.52743111 102.52743111 102.52743112h449.07014827c56.39008711 0 102.52743111-46.137344 102.5274311-102.52743112V585.3236338l139.43730632-88.17359076a94.53495182 94.53495182 0 0 0 43.06152106-65.61755591 94.88447715 94.88447715 0 0 0-20.50548622-74.84502471z m-672.57994809-190.70102187a18.29182578 18.29182578 0 0 1 25.63185778 9.2274688c31.78350365 64.5922816 96.37578525 104.57797973 169.17026133 104.57797974 71.76920178 0 136.36148338-39.98569813 169.17026134-104.57797974 5.12637155-9.2274688 16.40438898-13.32856605 25.63185778-9.2274688 9.2274688 5.12637155 13.32856605 16.40438898 9.2274688 25.63185778-38.96042382 77.92084765-116.88127147 126.10874027-203.0043136 126.10874027-87.14831645 0-165.06916409-48.18789262-203.0043136-126.10874027a17.6160768 17.6160768 0 0 1 7.17692017-25.63185778z m407.03390151 686.93378845H285.62133902a19.45691022 19.45691022 0 1 1 0-38.96042383H732.64093866a19.45691022 19.45691022 0 1 1 0 38.96042383z" p-id="4012"></path></svg>