<?xml version="1.0" standalone="no"?><!DOCTYPE svg PUBLIC "-//W3C//DTD SVG 1.1//EN" "http://www.w3.org/Graphics/SVG/1.1/DTD/svg11.dtd"><svg t="1625065989528" class="icon" viewBox="0 0 1024 1024" version="1.1" xmlns="http://www.w3.org/2000/svg" p-id="1674" xmlns:xlink="http://www.w3.org/1999/xlink" width="200" height="200"><defs><style type="text/css"></style></defs><path d="M512 1012.62222187c276.48 0 500.62222187-224.14222187 500.62222187-500.62222187S788.48 11.37777813 512 11.37777813 11.37777813 235.52 11.37777813 512s224.14222187 500.62222187 500.62222187 500.62222187z m0-91.02222187a409.6 409.6 0 1 1 0-819.2 409.6 409.6 0 0 1 0 819.2z" p-id="1675"></path><path d="M530.56853333 695.86488853c-8.73813333-4.6876448-28.39893333-4.6876448-37.13706666 0l-61.0304 32.768c-54.43128853 29.21813333-108.58951147-6.82666667-102.2179552-68.72177706l6.28053333-60.71182294c1.18328853-11.42328853-6.18951147-31.85777813-14.56355627-39.9587552l-43.96373333-42.46186666c-44.50986667-43.008-26.53297813-106.04088853 34.5884448-117.87377814l67.8115552-13.1527104c11.55982187-2.2300448 30.5379552-15.83786667 36.4088896-26.07786666l33.08657707-57.57155627c30.03733333-52.2467552 94.3900448-52.06471147 124.33635626 0l33.04106667 57.57155627c6.00746667 10.37653333 24.8035552 23.84782187 36.40888853 26.07786666l67.85706667 13.1527104c60.98488853 11.78737813 79.50791147 74.45617813 34.5884448 117.87377814l-43.91822293 42.46186666c-8.32853333 8.05546667-15.7923552 28.39893333-14.60906667 39.9587552l6.28053333 60.66631147c6.3715552 61.34897813-47.6956448 98.03093333-102.2179552 68.76728853l-61.0304-32.768z m-105.72231146-66.49173333l25.48622293-13.69884373c35.68071147-19.11466667 87.69991147-19.11466667 123.3351104 0l25.48622293 13.65333333-2.18453333-20.75306667c-4.096-39.41262187 13.56231147-87.38133333 41.87022187-114.77902293l14.01742186-13.5168-26.48746666-5.1427552c-37.63768853-7.28177813-78.91626667-36.864-98.07644374-70.08711147L512 376.6499552l-16.29297813 28.39893333c-19.0691552 33.13208853-60.52977813 62.80533333-98.07644374 70.08711147l-26.48746666 5.1427552 13.9719104 13.5168c28.53546667 27.57973333 45.96622187 75.5484448 41.87022293 114.77902293l-2.13902293 20.79857707z" p-id="1676"></path></svg>