<?xml version="1.0" standalone="no"?><!DOCTYPE svg PUBLIC "-//W3C//DTD SVG 1.1//EN" "http://www.w3.org/Graphics/SVG/1.1/DTD/svg11.dtd"><svg t="1625734227900" class="icon" viewBox="0 0 1024 1024" version="1.1" xmlns="http://www.w3.org/2000/svg" p-id="1738" xmlns:xlink="http://www.w3.org/1999/xlink" width="200" height="200"><defs><style type="text/css"></style></defs><path d="M693.47555555 563.2H326.42844445c-28.10311111 0-50.97244445-22.86933333-50.97244445-50.97244445 0-28.10311111 22.86933333-50.97244445 50.97244445-50.97244444h367.0471111c28.10311111 0 50.97244445 22.86933333 50.97244445 50.97244444 0 28.21688889-22.86933333 50.97244445-50.97244445 50.97244445z" fill="#333333" p-id="1739"></path><path d="M509.952 1021.952c-281.03111111 0-509.72444445-228.69333333-509.72444445-509.72444445s228.69333333-509.72444445 509.72444445-509.72444444 509.72444445 228.69333333 509.72444445 509.72444444-228.69333333 509.72444445-509.72444445 509.72444445z m0-917.504c-224.82488889 0-407.77955555 182.95466667-407.77955555 407.77955555s182.95466667 407.77955555 407.77955555 407.77955556 407.77955555-182.95466667 407.77955555-407.77955556-182.95466667-407.77955555-407.77955555-407.77955555z" fill="#333333" p-id="1740"></path></svg>