<?xml version="1.0" standalone="no"?><!DOCTYPE svg PUBLIC "-//W3C//DTD SVG 1.1//EN" "http://www.w3.org/Graphics/SVG/1.1/DTD/svg11.dtd"><svg t="1624508850848" class="icon" viewBox="0 0 1024 1024" version="1.1" xmlns="http://www.w3.org/2000/svg" p-id="773" xmlns:xlink="http://www.w3.org/1999/xlink" width="200" height="200"><defs><style type="text/css"></style></defs><path d="M895.9 423.5c-45.7-60.2-106-110.8-173.2-146 29.3-28.9 45.4-63.7 45.4-100.2 0-25.6-7.7-50.4-22.8-73.5-13.7-21-33-39.7-57.3-55.5C640.2 17.1 577.7 0 512 0S383.8 17.1 336.1 48.2c-24.3 15.8-43.6 34.5-57.3 55.5-15.2 23.1-22.8 47.9-22.8 73.5 0 36.7 16.2 71.7 45.8 100.7-16.9 8.9-33.3 18.8-49.3 29.6-14.6 9.9-18.5 29.8-8.6 44.4 9.9 14.6 29.8 18.5 44.4 8.6 27.7-18.7 57.1-34.3 87.5-46.2 11.5-4.5 19.4-15.3 20.2-27.6 0.8-12.3-5.5-24-16.3-30.1-38-21.3-59.8-50.2-59.8-79.3 0-27.1 18.1-53.9 51.1-75.4C408.5 77.4 458.5 64 512 64s103.5 13.4 140.9 37.8c33 21.5 51.1 48.3 51.1 75.4 0 29-21.6 57.8-59.4 79.1-10.8 6.1-17.1 17.8-16.2 30.1s8.8 23.1 20.3 27.5C787.7 368.2 928 509.8 928 703.7c0 66.2-32.4 127.2-91.2 171.6C763.5 930.7 651.2 960 512 960c-139.1 0-251.4-29.3-324.7-84.7C128.4 830.8 96 769.8 96 703.6c0-63.5 15.6-124.9 46.2-182.5 8.3-15.6 2.4-35-13.2-43.3-15.6-8.3-35-2.4-43.3 13.2C50.1 558 32 629.5 32 703.6c0 86.7 41.5 165.8 116.7 222.7 40.9 30.9 91.2 54.9 149.7 71.3 62.4 17.5 134.2 26.4 213.6 26.4s151.3-8.9 213.7-26.3c58.4-16.4 108.8-40.3 149.6-71.2 75.3-56.9 116.7-136 116.7-222.8 0-100.5-33.2-197.4-96.1-280.2z" p-id="774"></path><path d="M158.9 435.7c6.1 5.5 13.8 8.3 21.5 8.3 8.7 0 17.4-3.5 23.7-10.5 6.4-7.1 13.1-14 20-20.7 12.7-12.3 12.9-32.6 0.6-45.3s-32.6-12.9-45.3-0.6c-7.8 7.6-15.5 15.5-22.7 23.6-11.9 13.1-10.9 33.4 2.2 45.2zM352 640.8c-17.7 0-32 14.3-32 32s14.3 32 32 32h128v96c0 17.7 14.3 32 32 32s32-14.3 32-32v-96h128c17.7 0 32-14.3 32-32s-14.3-32-32-32H544v-64h128c17.7 0 32-14.3 32-32s-14.3-32-32-32h-82.7l73.4-73.4c12.5-12.5 12.5-32.8 0-45.3s-32.8-12.5-45.3 0L512.1 499.5 405.7 392.6c-12.5-12.5-32.7-12.6-45.3-0.1-12.5 12.5-12.6 32.7-0.1 45.3l74.7 75.1h-83c-17.7 0-32 14.3-32 32s14.3 32 32 32h128v64H352z" p-id="775"></path></svg>