<?xml version="1.0" standalone="no"?><!DOCTYPE svg PUBLIC "-//W3C//DTD SVG 1.1//EN" "http://www.w3.org/Graphics/SVG/1.1/DTD/svg11.dtd"><svg t="1628357195758" class="icon" viewBox="0 0 1024 1024" version="1.1" xmlns="http://www.w3.org/2000/svg" p-id="4426" xmlns:xlink="http://www.w3.org/1999/xlink" width="200" height="200"><defs><style type="text/css"></style></defs><path d="M831.20009102 798.44159602H192.79990898c-105.79719737 0-191.49539328-85.73929813-191.49539442-191.49539328v-191.49539328c0-105.79719737 85.73929813-191.49539328 191.49539442-191.49539328h638.40018204c105.75609515 0 191.49539328 85.73929813 191.49539442 191.49539328v191.49539328c0 105.75609515-85.73929813 191.49539328-191.49539442 191.49539328z m127.62249444-383.03188879c0-70.57256675-57.09102877-127.6224933-127.62249444-127.62249329H192.79990898c-70.44926009 0-127.6224933 57.09102877-127.62249444 127.62249329v191.49539328c0 70.53146453 57.17323321 127.74579997 127.62249444 127.74579997h638.40018204c70.53146453 0 127.6224933-57.21433543 127.62249444-127.74579997v-191.49539328z m-111.63371748 159.64114831c-26.51095267 0-47.88412416-21.45537593-47.88412416-47.88412416 0-26.42874823 21.37317149-47.88412416 47.88412416-47.88412416 26.42874823 0 47.88412416 21.45537593 47.88412416 47.88412416 0 26.42874823-21.45537593 47.88412416-47.88412416 47.88412416z m-95.76824832-127.74580111c-26.51095267 0-47.88412416-21.37317149-47.88412416-47.88412302 0-26.42874823 21.37317149-47.88412416 47.88412416-47.88412416 26.42874823 0 47.88412416 21.45537593 47.88412416 47.88412416 0 26.51095267-21.45537593 47.88412416-47.88412416 47.88412302z m15.90657138 175.62992413c0 26.42874823-21.45537593 47.88412416-47.88412302 47.88412416-26.42874823 0-47.88412416-21.45537593-47.88412416-47.88412416 0-26.42874823 21.45537593-47.88412416 47.88412416-47.88412302 26.42874823 0 47.88412416 21.45537593 47.88412302 47.88412302z m-143.61126912-79.86167581c-26.42874823 0-47.88412416-21.37317149-47.88412416-47.88412416 0-26.42874823 21.45537593-47.88412416 47.88412416-47.88412416 26.42874823 0 47.88412416 21.45537593 47.88412416 47.88412416-0.04110222 26.51095267-21.49647815 47.88412416-47.88412416 47.88412416z m-207.40196579 0h-95.76824719v95.76824832c0 17.71507029-14.38578802 31.97755278-31.97755278 31.97755165s-31.89534834-14.26248135-31.8953472-31.97755165v-95.76824832h-95.76824832c-17.59176363 0-31.97755278-14.26248135-31.97755278-31.89534833 0-17.63286585 14.38578802-31.89534834 31.97755278-31.8953472h95.76824832v-95.76824832c0-17.59176363 14.26248135-31.97755278 31.8953472-31.97755165s31.97755278 14.38578802 31.97755278 31.97755165v95.76824832h95.76824719c17.63286585 0 31.89534834 14.26248135 31.89534833 31.8953472-0.04110222 17.59176363-14.30358357 31.89534834-31.89534833 31.89534833z" p-id="4427"></path></svg>