<?xml version="1.0" standalone="no"?><!DOCTYPE svg PUBLIC "-//W3C//DTD SVG 1.1//EN" "http://www.w3.org/Graphics/SVG/1.1/DTD/svg11.dtd"><svg t="1628358619315" class="icon" viewBox="0 0 1024 1024" version="1.1" xmlns="http://www.w3.org/2000/svg" p-id="1859" xmlns:xlink="http://www.w3.org/1999/xlink" width="200" height="200"><defs><style type="text/css"></style></defs><path d="M391.168 378.65244445h61.55377778c15.47377778 0 28.10311111 10.01244445 28.10311111 22.41422222 0 12.288-12.51555555 22.41422222-28.10311111 22.41422222h-61.55377778c-15.36 0-27.98933333-10.01244445-27.98933333-22.41422222 0-12.40177778 12.51555555-22.41422222 27.98933333-22.41422222z m156.78577778 0h61.55377777c15.47377778 0 28.10311111 10.01244445 28.10311112 22.41422222 0 12.288-12.51555555 22.41422222-28.10311112 22.41422222h-61.55377777c-15.47377778 0-27.98933333-10.01244445-27.98933333-22.41422222 0-12.40177778 12.51555555-22.41422222 27.98933333-22.41422222z m156.55822222 0h61.55377778c15.47377778 0 28.10311111 10.01244445 28.10311111 22.41422222 0 12.288-12.51555555 22.41422222-28.10311111 22.41422222h-61.55377778c-15.47377778 0-27.98933333-10.01244445-27.98933333-22.41422222 0.11377778-12.40177778 12.62933333-22.41422222 27.98933333-22.41422222z m156.672 0H922.73777778c15.47377778 0 28.10311111 10.01244445 28.10311111 22.41422222 0 5.91644445-2.95822222 11.60533333-8.30577778 15.81511111-5.68888889 4.32355555-12.62933333 6.71288889-19.79733333 6.59911111h-61.55377778c-15.47377778 0-27.98933333-10.01244445-27.98933333-22.41422222 0.22755555-12.40177778 12.74311111-22.41422222 27.98933333-22.41422222z m0 0" p-id="1860"></path><path d="M253.61066667 128L184.32 111.16088889c-2.95822222-0.68266667-5.91644445-1.13777778-9.10222222-1.13777778-52.67911111 0-111.84355555 108.77155555-111.84355556 251.79022222 0 143.01866667 59.16444445 251.79022222 111.84355556 251.79022222 19.68355555 0 42.89422222-16.61155555 64.17066667-51.54133333l103.76533333-170.21155555V896.56888889l54.272-38.00177778c28.10311111-20.82133333 66.56-20.36622222 94.32177777 0.91022222l55.97866667 43.008 55.97866667-43.008c28.10311111-21.73155555 67.35644445-21.73155555 95.57333333 0l55.97866667 43.008 55.97866666-43.008c27.76177778-21.27644445 66.10488889-21.73155555 94.32177778-0.91022222l64.512 46.08V356.80711111c-1.36533333-141.08444445-60.07466667-246.21511111-111.84355555-246.21511111H253.61066667v17.408z m-55.97866667-71.22488889l0.56888889-2.73066666H857.88444445c91.70488889 0 166.22933333 134.25777778 167.936 302.19377777v576.512c0 22.75555555-18.31822222 41.30133333-41.07377778 41.30133333-8.53333333 0-16.83911111-2.61688889-23.77955556-7.50933333l-89.54311111-62.35022222c-8.07822222-6.144-19.34222222-6.144-27.30666667 0l-62.57777778 48.01422222c-16.04266667 12.40177778-38.57066667 12.40177778-54.61333333 0L664.46222222 904.07822222c-8.07822222-6.25777778-19.34222222-6.25777778-27.30666667 0l-62.464 48.01422223c-16.04266667 12.40177778-38.57066667 12.40177778-54.61333333 0l-62.57777777-48.01422223c-8.07822222-6.144-19.34222222-6.144-27.30666667 0l-98.07644445 68.608c-12.97066667 8.98844445-30.60622222 5.91644445-39.70844444-7.05422222-3.29955555-4.77866667-5.12-10.46755555-5.12-16.15644445V591.30311111c-2.73066667 4.43733333-5.57511111 8.87466667-8.53333334 13.08444444l-47.33155555-13.08444444v60.98488889c-16.49777778 11.15022222-35.95377778 17.18044445-55.97866667 17.52177778-92.95644445-0.22755555-168.16355555-137.89866667-168.16355555-307.99644445 0-155.87555555 63.37422222-285.35466667 145.52177777-305.03822222h44.82844445z m0 0" p-id="1861"></path><path d="M175.21777778 613.60355555h167.936v55.97866667H175.21777778z" p-id="1862"></path><path d="M175.21777778 613.60355555c52.67911111 0 111.84355555-108.65777778 111.84355555-251.79022222 0-143.13244445-59.16444445-251.79022222-111.84355555-251.79022222s-111.84355555 108.77155555-111.84355556 251.79022222c0 143.13244445 59.16444445 251.79022222 111.84355556 251.79022222z m0 55.97866667c-92.72888889 0-167.936-137.78488889-167.936-307.88266667 0-169.87022222 75.20711111-307.76888889 167.936-307.76888888S343.15377778 191.71555555 343.15377778 361.81333333c0 170.09777778-75.20711111 307.76888889-167.936 307.76888889z m0 0" p-id="1863"></path><path d="M181.36177778 443.84711111c11.264-23.77955555 16.83911111-50.06222222 16.15644444-76.34488889 0.68266667-26.39644445-4.89244445-52.56533333-16.15644444-76.34488889-1.82044445-3.29955555-3.86844445-6.48533333-6.144-9.44355555-2.27555555 2.95822222-4.32355555 6.25777778-6.144 9.55733333-11.37777778 23.77955555-16.83911111 49.83466667-16.15644445 76.23111111-0.56888889 26.39644445 5.00622222 52.56533333 16.15644445 76.34488889 1.82044445 3.29955555 3.86844445 6.48533333 6.144 9.44355556 2.27555555-2.95822222 4.32355555-6.144 6.144-9.44355556z m-6.144 69.17688889c-43.34933333 0-78.39288889-65.19466667-78.39288889-145.52177778 0-80.21333333 35.04355555-145.52177778 78.39288889-145.52177777 43.34933333 0 78.39288889 65.19466667 78.39288889 145.52177777 0 80.32711111-35.04355555 145.52177778-78.39288889 145.52177778z m0 0" p-id="1864"></path></svg>