<?xml version="1.0" standalone="no"?><!DOCTYPE svg PUBLIC "-//W3C//DTD SVG 1.1//EN" "http://www.w3.org/Graphics/SVG/1.1/DTD/svg11.dtd"><svg t="1624678323198" class="icon" viewBox="0 0 1024 1024" version="1.1" xmlns="http://www.w3.org/2000/svg" p-id="3880" xmlns:xlink="http://www.w3.org/1999/xlink" width="200" height="200"><defs><style type="text/css"></style></defs><path d="M182.59489829 605.14178997c44.88837347-170.35709403-152.43654181-207.29182435-166.52940325-70.41459693-10.26517068 100.663296 49.13860153 217.75583611 83.33926704 268.78342788 5.81610155 1.59072863 11.35879661 3.20631239 17.24946355 4.64791021h21.02744406v32.43595094c0 14.565109 18.56678571 26.42100831 41.50807514 26.4210083 23.04070997 0 41.58264054-11.85589931 41.58264055-26.4210083v-32.43595094h582.38066385v32.43595094c0 14.565109 18.74077165 26.42100831 41.68206107 26.4210083s41.58264054-11.85589931 41.58264055-26.4210083v-32.43595094h18.81533705c7.45654045-2.98261618 13.17322145-8.00335341 20.6297619-11.06053498 35.79139413-67.90422832 103.69562245-181.14422253 77.29946927-287.99644711-17.74656626-71.58278827-135.38591934-86.57043456-160.5641709 0-11.11024526 38.45089356 17.39859437 61.19334192-11.9304647 102.52743112 0 0-296.24835186-154.42495261-647.99821977-6.41262479m30.00014772-38.45089355c4.97102697-97.13386686-46.08141995-133.82004585-112.91687746-153.60473316C59.13944368 89.94455553 730.82460691 94.09536305 872.64800617 246.83016648c33.95211415 36.68617899 53.33911931 103.47192624 53.51310524 166.33056218-67.35741535 19.23787435-122.9334968 51.25128799-112.99144286 153.60473316 0 0-291.05362868-130.8622848-600.52491226 0" p-id="3881"></path></svg>