<?xml version="1.0" standalone="no"?><!DOCTYPE svg PUBLIC "-//W3C//DTD SVG 1.1//EN" "http://www.w3.org/Graphics/SVG/1.1/DTD/svg11.dtd"><svg t="1628357192175" class="icon" viewBox="0 0 1065 1024" version="1.1" xmlns="http://www.w3.org/2000/svg" p-id="4291" xmlns:xlink="http://www.w3.org/1999/xlink" width="208.0078125" height="200"><defs><style type="text/css"></style></defs><path d="M828.937028 1024h-596.473552a145.088161 145.088161 0 0 1-145.088161-145.088161V391.738035h886.649874v487.81864a145.088161 145.088161 0 0 1-145.088161 144.443325z m-644.836272-535.536524v391.093199a48.36272 48.36272 0 0 0 48.36272 48.36272h596.473552a48.36272 48.36272 0 0 0 48.36272-48.36272V488.463476z" p-id="4292"></path><path d="M911.959698 488.463476H148.634761a148.79597 148.79597 0 0 1 0-297.43073h763.324937a148.79597 148.79597 0 1 1 0 297.43073zM148.634761 287.758186a52.070529 52.070529 0 0 0 0 103.979849h763.324937a52.070529 52.070529 0 1 0 0-103.979849z" p-id="4293"></path><path d="M530.377834 236.654912a48.36272 48.36272 0 0 1-48.362721-48.362721 91.566751 91.566751 0 0 0-183.133501 0 48.36272 48.36272 0 0 1-96.725441 0 188.292191 188.292191 0 0 1 376.584383 0 48.36272 48.36272 0 0 1-48.36272 48.362721z" p-id="4294"></path><path d="M810.236776 236.654912a48.36272 48.36272 0 0 1-48.362721-48.362721 91.566751 91.566751 0 0 0-183.133501 0 48.36272 48.36272 0 0 1-96.725441 0 188.292191 188.292191 0 0 1 376.584383 0 48.36272 48.36272 0 0 1-48.36272 48.362721z" p-id="4295"></path><path d="M530.377834 863.274559a48.36272 48.36272 0 0 1-48.362721-48.36272V600.664987a48.36272 48.36272 0 0 1 96.725441 0v214.246852a48.36272 48.36272 0 0 1-48.36272 48.36272z" p-id="4296"></path></svg>