<?xml version="1.0" standalone="no"?><!DOCTYPE svg PUBLIC "-//W3C//DTD SVG 1.1//EN" "http://www.w3.org/Graphics/SVG/1.1/DTD/svg11.dtd"><svg t="1628357108746" class="icon" viewBox="0 0 1024 1024" version="1.1" xmlns="http://www.w3.org/2000/svg" p-id="2722" xmlns:xlink="http://www.w3.org/1999/xlink" width="200" height="200"><defs><style type="text/css"></style></defs><path d="M638.4 9.6c-9.4 0-16 6.4-16 15.4s6.8 15.4 16 15.4h106.8v29.4h-106.8c-9.4 0-16 6.4-16 15.4s6.8 15.4 16 15.4h106.8V130h-106.8c-9.4 0-16 6.4-16 15.4s6.8 15.4 16 15.4h106.8v29.4h-106.8c-9.4 0-16 6.4-16 15.4 0 8.8 6.8 15.4 16 15.4h106.8v28.8h-106.8c-9.4 0-16 6.4-16 15.4s6.8 15.4 16 15.4h106.8V310h-106.8c-9.4 0-16 6.4-16 15.4s6.8 15.4 16 15.4h106.8v29.4h-106.8c-9.4 0-16 6.4-16 15.4s6.8 15.4 16 15.4h106.8v29.4h-106.8c-9.4 0-16 6.4-16 15.4s6.8 15.4 16 15.4h106.8V490h-106.8c-9.4 0-16 6.4-16 15.4s6.8 15.4 16 15.4h106.8v29.4h-106.8c-9.4 0-16 6.4-16 15.4 0 8.8 6.8 15.4 16 15.4h20c48.2 0 88.2 34.4 93.4 79l32 356.8h37.6V38.6c0-16.6-14.8-30.6-32-30.6l-151 1.6zM344.6 626.4c-9.4-8.8-21.4-15.4-34.6-16.6-1.2 5.2-1.2 10.2-3.8 15.4l-62.8 167c-3.8 0-9.4-1.2-13.4-1.2-61.4 0-110.8 47.2-110.8 105.6s49.4 105.6 110.8 105.6 110.8-47.2 110.8-105.6c0-37-20-69-49.4-88l64.2-168.2c-4.2-6.4-6.8-10.2-11-14z m-42.8 269c0 38.2-32 69-72.2 69-20 0-37.6-7.6-50.8-20.4-13.2-12.8-21.4-30.6-21.4-48.4 0-19 8-35.8 21.4-48.4 13.4-12.6 32-20.4 50.8-20.4 20 0 37.6 7.6 50.8 20.4 13.2 12.6 21.4 29 21.4 48.2zM559.4 907.4c-6.2-7.2-11.4-14.4-14.4-23.8 24.8-15.4 41.2-42.4 41.2-73.2 0-47.4-38.2-85.6-85.6-85.6-5.2 0-10.4 0-14.4 1l-48.6-135.2c-4.2-11.4-6.2-22.8-7.2-35l-15.4-460.4c-9.2-4.2-18.6-6.2-29-6.2s-19.6 2-29 6.2l-15.4 461.4c25.8 4.2 46.4 21.6 55.8 44.4l51.6 142.4c-21.6 15.4-35 40.2-35 69.2 0 47.4 38.2 85.6 85.6 85.6 6.2 0 11.4-1 17.6-2 11.4 34 43.4 58.8 81.6 58.8V926c-14.6-2.2-29-7.2-39.4-18.6z m-58.8-40.4c-15.4 0-29-6.2-39.2-16.6s-16.6-24.8-16.6-39.2c0-15.4 6.2-29 16.6-39.2s24.8-16.6 39.2-16.6c15.4 0 29 6.2 39.2 16.6s16.6 24.8 16.6 39.2c0 31.2-24.8 55.8-55.8 55.8z" p-id="2723"></path></svg>