<?xml version="1.0" standalone="no"?><!DOCTYPE svg PUBLIC "-//W3C//DTD SVG 1.1//EN" "http://www.w3.org/Graphics/SVG/1.1/DTD/svg11.dtd"><svg t="1628357176100" class="icon" viewBox="0 0 1024 1024" version="1.1" xmlns="http://www.w3.org/2000/svg" p-id="3760" xmlns:xlink="http://www.w3.org/1999/xlink" width="200" height="200"><defs><style type="text/css"></style></defs><path d="M512 881.0226647c-66.57625414 0-128.71409118-25.99644182-175.63449814-72.91685-10.14495338-10.14495338-10.14495338-25.99644182 0-36.141394 10.14495338-10.14495338 25.99644182-10.14495338 36.14139399 0 37.40951438 37.40951438 86.86615969 57.69941994 140.12716373 57.69941993s102.71764935-20.28990555 140.12716253-57.69941993c10.14495338-10.14495338 25.99644182-10.14495338 36.1413952 0 10.14495338 10.14495338 10.14495338 25.99644182 0 36.141394-48.18852613 46.92040697-110.32636317 72.91685001-176.90261731 72.91685z" p-id="3761"></path><path d="M512 1007.83457712c-169.92796308 0-322.73631732-103.35170894-386.77633312-258.69630153-65.94219455 3.80435751-120.47131655-49.45664531-120.47131655-114.13072069 0-56.43130076 41.2138719-103.35170894 95.10893431-112.86260152 26.63050141-161.05112886 147.73587756-294.83769674 306.88482767-336.05156864 13.31525132-3.80435751 27.264561 4.4384171 31.06891851 18.38772801 3.80435751 13.31525132-4.4384171 27.264561-18.38772679 31.06891851-145.83369879 38.04357396-255.52600359 164.22142681-272.01155164 313.85948312-1.26811918 13.31525132-12.68119173 22.82614389-25.99644182 22.19208431h-1.90217876c-34.87327604 0-63.40595621 28.53268017-63.4059562 64.0400158s28.53268017 64.0400158 64.04001579 64.04001579c5.07247669 0 10.77901297-0.63405958 15.85148844-1.90217875 12.68119173-3.17029793 25.99644182 3.80435751 30.43485894 15.85148965 51.99288366 146.46775839 190.85192821 244.74699062 346.1965208 244.74699063s294.83769674-98.27923225 346.19652081-244.74699063c4.4384171-12.68119173 17.75366721-19.65584596 30.43485894-15.85148965 5.70653628 1.26811918 10.77901297 1.90217876 15.85148845 1.90217875 35.50733563 0 64.0400158-28.53268017 64.04001578-64.04001579s-28.53268017-64.0400158-64.04001578-64.0400158h-1.90217877c-13.31525132 0-24.72832266-9.51089379-25.99644182-22.19208431-17.11960762-149.63805631-126.17785283-275.81590915-272.01155164-313.85948312-13.31525132-3.80435751-21.55802473-17.11960762-18.38772678-31.06891851s17.11960762-21.55802473 31.06891852-18.38772801c159.14895011 41.2138719 280.25432625 175.00043856 306.88482765 336.05156864 53.89506241 9.51089379 95.10893431 56.43130076 95.10893432 112.86260152 0 63.40595621-51.35882407 114.76478028-114.76478148 114.76478028h-5.70653507c-64.67407538 155.34459259-217.48242963 258.06224194-387.41039271 258.06224194z" p-id="3762"></path><path d="M356.02134782 553.2138719m-44.38416983 0a44.38416983 44.38416983 0 1 0 88.76833966 0 44.38416983 44.38416983 0 1 0-88.76833966 0Z" p-id="3763"></path><path d="M669.88083094 553.2138719m-44.38416983 0a44.38416983 44.38416983 0 1 0 88.76833845 0 44.38416983 44.38416983 0 1 0-88.76833845 0Z" p-id="3764"></path><path d="M512 378.84749172c-68.47843291 0-124.27567408-53.26100283-124.27567408-119.20319738 0-86.86615969 50.0907049-171.83014062 140.76122211-239.04045436 7.60871504-5.70653628 17.75366721-6.34059586 26.63050263-2.53623835 8.24277462 4.4384171 13.9493109 13.31525132 13.94930969 22.8261439 0 58.9675391 15.85148845 84.32992134 32.97109727 110.96042397 16.48554803 25.36238224 34.87327604 54.52912199 34.87327604 107.79012484C636.27567408 325.58648889 580.47843291 378.84749172 512 378.84749172z m10.14495338-287.2289805c-40.57981232 38.04357396-83.69586176 95.7429939-83.69586297 168.02578312 0 38.04357396 32.97109728 68.47843291 73.55090959 68.47843289 40.57981232 0 73.55090959-31.06891852 73.55090959-68.47843289 0-38.67763356-12.04713214-57.06536035-26.63050262-79.89150425-13.31525132-21.55802473-29.16673977-46.2863486-36.77545359-88.13427887z" p-id="3765"></path></svg>