<?xml version="1.0" standalone="no"?><!DOCTYPE svg PUBLIC "-//W3C//DTD SVG 1.1//EN" "http://www.w3.org/Graphics/SVG/1.1/DTD/svg11.dtd"><svg t="1628357180418" class="icon" viewBox="0 0 1024 1024" version="1.1" xmlns="http://www.w3.org/2000/svg" p-id="3895" xmlns:xlink="http://www.w3.org/1999/xlink" width="200" height="200"><defs><style type="text/css"></style></defs><path d="M876.08888889 190.38814777h-36.40888889v-19.90352555c0-75.97321443-61.89511111-137.86832555-137.86832555-137.86832555H322.18832555c-75.97321443 0-137.86832555 61.89511111-137.86832555 137.86832555v19.90352555H147.91111111a133.74198557 133.74198557 0 0 0-133.49925888 133.49926002v533.99703666c0 73.54595555 59.95330333 133.49925888 133.49925888 133.49925888h728.17777778c73.54595555 0 133.49925888-59.95330333 133.49925888-133.49925888v-533.99703666c0-73.54595555-59.95330333-133.49925888-133.49925888-133.49926002z m-618.95111111-19.90352555c0-35.92343666 29.12711111-65.05054777 65.05054777-65.05054777h379.6233489c35.92343666 0 65.05054777 29.12711111 65.05054777 65.05054777v19.90352555h-509.72444444v-19.90352555z m679.63259221 687.39982223a60.6814811 60.6814811 0 0 1-60.6814811 60.6814811H147.91111111a60.6814811 60.6814811 0 0 1-60.6814811-60.6814811v-400.49777778h849.54073998v400.49777778z m0-473.31555556h-849.54073998v-60.6814811a60.6814811 60.6814811 0 0 1 60.6814811-60.68148224h728.17777778a60.6814811 60.6814811 0 0 1 60.6814811 60.68148224v60.6814811z" p-id="3896"></path><path d="M633.36296334 636.39703666h-84.95407445v-84.95407332a36.40888889 36.40888889 0 1 0-72.81777778 0v84.95407332H390.63703666a36.40888889 36.40888889 0 0 0 0 72.81777777h84.95407445v84.95407446a36.40888889 36.40888889 0 0 0 72.81777778 0v-84.95407446H633.36296334a36.40888889 36.40888889 0 0 0 0-72.81777777z" p-id="3897"></path></svg>