<?xml version="1.0" standalone="no"?><!DOCTYPE svg PUBLIC "-//W3C//DTD SVG 1.1//EN" "http://www.w3.org/Graphics/SVG/1.1/DTD/svg11.dtd"><svg t="1625734236698" class="icon" viewBox="0 0 1024 1024" version="1.1" xmlns="http://www.w3.org/2000/svg" p-id="1870" xmlns:xlink="http://www.w3.org/1999/xlink" width="200" height="200"><defs><style type="text/css"></style></defs><path d="M404.13866667 176.35555555h570.70933333c25.48622222 0 46.08-21.16266667 46.08-46.64888888s-20.59377778-46.64888889-46.08-46.64888889H404.13866667c-25.48622222 0-46.08 21.16266667-46.08 46.64888889s20.59377778 46.64888889 46.08 46.64888888zM974.848 452.83555555H404.13866667c-25.48622222 0-46.08 20.59377778-46.08 46.08s20.59377778 46.08 46.08 46.08h570.70933333c25.48622222 0 46.08-20.59377778 46.08-46.08S1000.33422222 452.83555555 974.848 452.83555555zM974.848 840.81777778H403.00088889c-25.48622222 0-46.08 21.16266667-46.08 46.64888889s20.59377778 46.64888889 46.08 46.64888888h571.84711111c25.48622222 0 46.08-21.16266667 46.08-46.64888888s-20.59377778-46.64888889-46.08-46.64888889zM195.47022222 83.05777778H51.31377778c-25.48622222 0-46.08 21.16266667-46.08 46.64888889s20.59377778 46.64888889 46.08 46.64888888h144.15644444c25.48622222 0 46.08-21.16266667 46.08-46.64888888s-20.59377778-46.64888889-46.08-46.64888889zM195.47022222 472.17777778H51.31377778c-25.48622222 0-46.08 20.59377778-46.08 46.08S25.82755555 564.33777778 51.31377778 564.33777778h144.15644444c25.48622222 0 46.08-20.59377778 46.08-46.08S220.95644445 472.17777778 195.47022222 472.17777778zM195.47022222 840.81777778H49.03822222c-25.48622222 0-46.08 21.16266667-46.08 46.64888889s20.59377778 46.64888889 46.08 46.64888888h146.432c25.48622222 0 46.08-21.16266667 46.08-46.64888888s-20.59377778-46.64888889-46.08-46.64888889z" p-id="1871"></path></svg>