<?xml version="1.0" standalone="no"?><!DOCTYPE svg PUBLIC "-//W3C//DTD SVG 1.1//EN" "http://www.w3.org/Graphics/SVG/1.1/DTD/svg11.dtd"><svg t="1627888127879" class="icon" viewBox="0 0 1024 1024" version="1.1" xmlns="http://www.w3.org/2000/svg" p-id="1961" xmlns:xlink="http://www.w3.org/1999/xlink" width="200" height="200"><defs><style type="text/css"></style></defs><path d="M243.02933333 840.53333333c-9.67111111 0-18.88711111-3.86844445-25.71377778-10.69511111l-157.01333333-157.01333334c-14.22222222-14.22222222-14.22222222-37.31911111 0-51.54133333l453.51822223-453.51822222c10.12622222-10.12622222 38.11555555-33.56444445 81.00977777-33.56444445 30.60622222 0 59.392 11.94666667 81.00977778 33.56444445l46.53511111 46.53511111c44.60088889 44.60088889 44.60088889 117.30488889 0 162.01955556L673.56444445 425.24444444C541.80977778 556.88533333 405.61777778 692.96355555 268.74311111 829.83822222c-6.82666667 6.82666667-16.04266667 10.69511111-25.71377778 10.69511111z m-105.472-193.42222222l105.472 105.472c128.22755555-128.22755555 255.65866667-255.54488889 379.10755556-378.88l48.81066666-48.81066667c16.27022222-16.27022222 16.27022222-42.89422222 0-59.05066666L624.41244445 219.30666666c-7.85066667-7.85066667-18.31822222-12.17422222-29.58222223-12.17422222-16.49777778 0-27.53422222 10.12622222-29.58222222 12.17422222L137.55733333 647.11111111z" p-id="1962"></path><path d="M39.48088889 887.06844444c-9.55733333 0-18.88711111-3.75466667-25.71377778-10.69511111-9.216-9.216-12.74311111-22.64177778-9.44355556-35.15733333l54.15822223-201.95555556c3.41333333-12.51555555 13.19822222-22.41422222 25.71377777-25.71377778 12.51555555-3.41333333 25.94133333 0.22755555 35.15733334 9.44355556l147.91111111 147.79733333c9.216 9.216 12.74311111 22.64177778 9.44355555 35.15733333-3.41333333 12.51555555-13.19822222 22.41422222-25.71377777 25.71377778L48.92444445 885.81688888c-3.18577778 0.79644445-6.25777778 1.25155555-9.44355556 1.25155556z m73.04533333-168.04977778L91.02222222 799.11822222l80.21333333-21.504-58.70933333-58.59555556z m507.79022223-291.27111111c-9.44355555 0-18.88711111-3.64088889-25.94133334-10.92266667L456.36266667 276.30933333c-14.10844445-14.336-13.88088889-37.43288889 0.45511111-51.54133333 14.336-14.10844445 37.43288889-13.88088889 51.54133333 0.45511111L646.25777778 365.85244444c14.10844445 14.336 13.88088889 37.43288889-0.45511111 51.54133334-7.05422222 6.82666667-16.27022222 10.35377778-25.48622222 10.35377777z m359.19644444 448.39822223H386.95822222c-20.13866667 0-36.40888889-16.27022222-36.40888889-36.4088889s16.27022222-36.40888889 36.40888889-36.40888888h592.55466667c20.13866667 0 36.40888889 16.27022222 36.40888889 36.40888888s-16.27022222 36.40888889-36.40888889 36.4088889z m0-154.73777778H611.66933333c-20.13866667 0-36.40888889-16.27022222-36.40888888-36.40888889s16.27022222-36.40888889 36.40888888-36.40888889h367.84355556c20.13866667 0 36.40888889 16.27022222 36.40888889 36.40888889s-16.27022222 36.40888889-36.40888889 36.40888889z m-1.13777778-151.89333334H755.02933333c-20.13866667 0-36.40888889-16.27022222-36.40888888-36.40888888s16.27022222-36.40888889 36.40888888-36.4088889h223.34577778c20.13866667 0 36.40888889 16.27022222 36.40888889 36.4088889s-16.27022222 36.40888889-36.40888889 36.40888888z" p-id="1963"></path></svg>