<?xml version="1.0" standalone="no"?><!DOCTYPE svg PUBLIC "-//W3C//DTD SVG 1.1//EN" "http://www.w3.org/Graphics/SVG/1.1/DTD/svg11.dtd"><svg t="1628357159334" class="icon" viewBox="0 0 1024 1024" version="1.1" xmlns="http://www.w3.org/2000/svg" p-id="3365" xmlns:xlink="http://www.w3.org/1999/xlink" width="200" height="200"><defs><style type="text/css"></style></defs><path d="M873.81333333 875.06488889h112.75377778c18.31822222 0 36.864 2.38933333 36.63644444 25.82755556-0.22755555 21.95911111-17.97688889 23.66577778-35.2711111 23.552-36.29511111-0.22755555-72.59022222-0.11377778-108.99911112-0.11377778-71.33866667 0-71.33866667 0-137.216 47.33155555 12.85688889 0.91022222 21.61777778 1.93422222 30.26488889 1.93422223 71.68 0.11377778 143.36 0.11377778 215.04 0.11377777 18.432 0 37.09155555 1.93422222 36.18133333 25.71377778-0.79644445 21.504-18.77333333 23.552-35.95377777 23.552-164.40888889-0.34133333-328.93155555 3.072-493.11288889-1.93422222-254.86222222-7.85066667-466.83022222-208.55466667-489.472-456.81777778-23.89333333-262.144 143.47377778-494.13688889 398.44977778-552.16355555 288.19911111-65.536 579.12888889 136.76088889 615.99288888 427.69066666 20.25244445 159.40266667-24.00711111 298.21155555-130.27555555 417.90577778-3.64088889 4.096-7.05422222 8.192-15.01866667 17.408z m102.4-363.40622222c-0.34133333-256.79644445-207.98577778-463.07555555-466.03377778-462.96177778-251.904 0.11377778-460.8 210.60266667-460.11733333 463.41688889 0.79644445 254.52088889 211.28533333 463.41688889 465.00977778 461.48266667 255.08977778-1.93422222 461.48266667-208.66844445 461.14133333-461.93777778z" p-id="3366"></path><path d="M334.73422222 845.93777778c-74.752-0.34133333-130.95822222-57.91288889-130.50311111-133.68888889 0.45511111-72.81777778 58.48177778-130.38933333 131.52711111-130.38933334 73.95555555 0 132.77866667 58.82311111 132.55111111 132.89244445-0.11377778 74.06933333-58.48177778 131.41333333-133.57511111 131.18577778z m3.64088889-215.95022223c-45.28355555-1.70666667-84.87822222 35.72622222-86.35733333 81.69244445-1.47911111 45.85244445 35.49866667 85.10577778 81.46488889 86.35733333 46.08 1.25155555 84.65066667-35.04355555 86.58488888-81.57866666 1.82044445-45.16977778-35.49866667-84.65066667-81.69244444-86.47111112zM335.872 467.62666667c-74.97955555-0.11377778-131.86844445-57.23022222-131.64088889-132.55111112 0.11377778-74.29688889 58.93688889-132.43733333 133.23377778-131.75466666 72.24888889 0.68266667 130.61688889 59.392 130.84444444 131.75466666 0.34133333 74.29688889-57.91288889 132.66488889-132.43733333 132.55111112z m0.91022222-216.064c-45.73866667-0.45511111-84.42311111 37.54666667-84.76444444 83.39911111-0.34133333 45.96622222 37.54666667 84.76444445 83.17155555 84.992 45.85244445 0.34133333 84.19555555-37.20533333 84.992-83.39911111 0.68266667-45.16977778-37.77422222-84.53688889-83.39911111-84.992zM713.728 467.62666667c-74.752-0.22755555-131.52711111-57.79911111-131.18577778-133.12 0.34133333-74.18311111 59.50577778-131.98222222 133.91644445-131.18577778 72.13511111 0.79644445 130.50311111 59.96088889 130.38933333 132.43733333 0 74.18311111-58.48177778 132.096-133.12 131.86844445z m84.87822222-132.096c-0.34133333-45.73866667-38.912-84.08177778-84.53688889-83.968-45.73866667 0.11377778-83.62666667 38.22933333-83.85422222 84.53688888-0.22755555 45.51111111 38.912 84.30933333 84.30933334 83.85422223 46.30755555-0.68266667 84.42311111-38.912 84.08177777-84.42311111zM582.54222222 712.47644445c0.56888889-74.18311111 59.50577778-131.64088889 134.25777778-130.73066667 72.02133333 0.91022222 130.16177778 60.18844445 130.048 132.66488889-0.11377778 74.06933333-58.70933333 131.75466667-133.57511111 131.41333333-74.63822222-0.11377778-131.29955555-57.91288889-130.73066667-133.34755555z m216.064 0.68266666c-0.91022222-45.96622222-39.82222222-83.85422222-85.21955555-83.17155556-45.85244445 0.68266667-83.85422222 39.59466667-83.17155556 85.21955556 0.68266667 45.96622222 39.48088889 83.74044445 85.21955556 83.05777778 46.08-0.91022222 84.08177778-39.70844445 83.17155555-85.10577778zM512.68266667 569.00266667c-32.31288889-0.11377778-57.00266667-25.03111111-56.77511112-57.68533334 0.11377778-32.08533333 25.71377778-57.11644445 58.02666667-56.77511111 31.17511111 0.34133333 56.43377778 25.94133333 56.43377778 57.344 0 32.08533333-25.37244445 57.23022222-57.68533333 57.11644445z m36.75022222-57.23022222c-0.11377778-19.79733333-16.83911111-36.40888889-36.63644444-36.29511112-19.79733333 0-36.18133333 16.61155555-36.29511112 36.63644445-0.11377778 19.68355555 16.83911111 36.52266667 36.52266667 36.29511111 20.13866667-0.34133333 36.52266667-16.95288889 36.40888889-36.63644444z" p-id="3367"></path></svg>