<?xml version="1.0" standalone="no"?><!DOCTYPE svg PUBLIC "-//W3C//DTD SVG 1.1//EN" "http://www.w3.org/Graphics/SVG/1.1/DTD/svg11.dtd"><svg t="1624640998036" class="icon" viewBox="0 0 1024 1024" version="1.1" xmlns="http://www.w3.org/2000/svg" p-id="830" xmlns:xlink="http://www.w3.org/1999/xlink" width="200" height="200"><defs><style type="text/css"></style></defs><path d="M33.67557461 915.73444494l0.12341476 0.55653263 1.42160441-0.2479946c0.06170738 0 0.18512327 0.12341475 0.30970197 0.12341476 2.03984441 0 4.07968995-0.49482525 5.81099634-1.23648114l263.2424539-47.35653661 0-0.18512327c9.21073778-1.73130638 17.92781539-6.12069945 25.09987271-13.29275676l578.97132943-578.97016548c18.85575851-18.85575851 18.85575851-49.27296626 0-68.12872476L721.3943899 19.73488754c-9.45989746-9.45873351-21.76183865-14.21953593-34.1266523-14.21953593-12.30427022 0-24.6073765 4.76080242-34.00323755 14.21953593L74.23146439 598.70621696c-7.04747747 7.04864256-11.49857792 15.76455509-13.2298843 24.79133469l-0.24683065 0L25.70015289 868.87156963l-0.49482524 0.06287247 0.30970197 1.35989703-3.64773604 25.16158009c-0.74165589 1.7930149-1.17477376 3.77115193-1.17477376 5.74928896C20.69251982 908.7475109 26.38126535 914.80650183 33.67557461 915.73444494zM117.3837312 674.56236771l137.61734656 137.61734656-161.35732224 29.05731186L117.3837312 674.56236771zM687.2677376 75.1273893l165.93300253 165.93300252L313.29965966 781.02201458 147.4295296 615.08901205 687.2677376 75.1273893z" p-id="831"></path><path d="M986.79894016 955.17726834l-949.59904427 0c-17.49586147 0-31.65369003 14.15666347-31.65369002 31.65369003 0 17.49469753 14.15782741 31.65369003 31.65369002 31.65369002l949.59904427 0c17.49586147 0 31.65485397-14.15782741 31.65485397-31.65369002C1018.45263019 969.33393181 1004.29480163 955.17726834 986.79894016 955.17726834z" p-id="832"></path></svg>