<?xml version="1.0" standalone="no"?><!DOCTYPE svg PUBLIC "-//W3C//DTD SVG 1.1//EN" "http://www.w3.org/Graphics/SVG/1.1/DTD/svg11.dtd"><svg t="1628357099844" class="icon" viewBox="0 0 1024 1024" version="1.1" xmlns="http://www.w3.org/2000/svg" p-id="2462" xmlns:xlink="http://www.w3.org/1999/xlink" width="200" height="200"><defs><style type="text/css"></style></defs><path d="M763.88 0H260.13C147.94 0 57 89.54 57 200v624c0 110.46 90.94 200 203.13 200h503.75C876.06 1024 967 934.46 967 824V200C967 89.54 876.06 0 763.88 0zM903 824a133.63 133.63 0 0 1-40.4 95.82A139.77 139.77 0 0 1 763.88 960H260.13a139.78 139.78 0 0 1-98.73-40.18A133.62 133.62 0 0 1 121 824V200a133.62 133.62 0 0 1 40.4-95.82A139.78 139.78 0 0 1 260.13 64h503.75a139.77 139.77 0 0 1 98.72 40.18A133.63 133.63 0 0 1 903 200z" p-id="2463"></path><path d="M766.07 171.25C698.26 238.43 608 275.45 512 275.45c-95.89 0-186.26-37-254.07-104.2a38.72 38.72 0 0 0-54.57 0 37.84 37.84 0 0 0 0 54.05C285.84 307 395.44 352 512.16 352s226.31-45 308.48-126.7a37.82 37.82 0 0 0 0-54.05 38.72 38.72 0 0 0-54.57 0zM648 485.68a29.75 29.75 0 0 0-42.07 0l-94 94-94-94a29.75 29.75 0 0 0-42.07 0 29.75 29.75 0 0 0 0 42.07l99 99H412a30 30 0 0 0 0 60h70v40h-70a30 30 0 0 0 0 60h70v20a30 30 0 0 0 30 30 30 30 0 0 0 30-30v-20h70a30 30 0 0 0 0-60h-70v-40h70a30 30 0 0 0 0-60h-62.93l99-99a29.75 29.75 0 0 0 0-42.07z" p-id="2464"></path></svg>