<?xml version="1.0" standalone="no"?><!DOCTYPE svg PUBLIC "-//W3C//DTD SVG 1.1//EN" "http://www.w3.org/Graphics/SVG/1.1/DTD/svg11.dtd"><svg t="1624695094459" class="icon" viewBox="0 0 1024 1024" version="1.1" xmlns="http://www.w3.org/2000/svg" p-id="1804" xmlns:xlink="http://www.w3.org/1999/xlink" width="200" height="200"><defs><style type="text/css"></style></defs><path d="M565.59848563 83.8797048l0-19.81226583c0-29.81464686-24.39368855-54.20833541-54.20709388-54.20833542l-6.76470966 0c-29.8370007 0-54.20709388 24.39493132-54.20709387 54.20833542l0 21.97071341c-225.99867385 32.18918726-400.32996921 226.8854002-400.32996922 461.61473505 0 257.15458777 209.20798655 466.36257431 466.38741246 466.36257432 34.39482804 0 68.74494718-3.76424342 102.03695606-11.2020709 16.623028-3.71705022 27.10354634-20.17242134 23.3864961-36.7942078-3.71705022-16.6466246-20.26804807-27.05635434-36.81780439-23.38649612-28.9043227 6.42815075-58.71772801 9.71425686-88.60564777 9.71425687-223.16710844 0-404.74249231-181.55178727-404.74249231-404.69405758s181.57538387-404.71889571 404.74249231-404.7188957c223.14351184 0 404.6952991 181.57662542 404.69529912 404.7188957 0 29.76745366-3.26250951 59.46163442-9.64470982 88.24425071-3.69221207 16.623028 6.76470966 33.07839913 23.4125758 36.7706112 16.59818986 3.76548496 33.07715637-6.76346812 36.79420781-23.38525457 7.3645546-33.14918772 11.10520142-67.35276108 11.10520142-101.62960734C982.83960821 307.09524799 799.75281369 108.51432554 565.59848563 83.8797048zM517.3153255 282.4854654c-17.02913517 0-30.82059776 13.81505919-30.82059776 30.82059776l0 232.47277503c0 17.03161825 13.79146259 30.84667745 30.82059776 30.84667745l217.55489546 0c17.05397331 0 30.82183931-13.81505919 30.8218393-30.84667745 0-17.02913517-13.7678672-30.82059776-30.8218393-30.82059776L548.16200295 514.95824043 548.16200295 313.30730591C548.16200295 296.30052579 534.37054036 282.4854654 517.3153255 282.4854654zM807.71597047 680.67934086c-89.73206475 0-162.48342907 72.72652618-162.48342908 162.45734817 0 89.70846815 72.75136432 162.43375278 162.48342908 162.43375279 89.70846815 0 162.43375278-72.72528464 162.43375279-162.43375279C970.14972326 753.40586704 897.42568138 680.67934086 807.71597047 680.67934086zM862.02117538 863.88535994c9.61863012 0 17.41288607 7.7954987 17.41288608 17.39053223 0 9.61863012-7.79425716 17.39053223-17.41288608 17.39053222l-36.12357306 0 0 33.24481566c0 9.61863012-7.82033684 17.41412883-17.41412883 17.41412884-9.61738737 0-17.41288607-7.7954987-17.41288607-17.41412884l0-33.24481566-39.24077955 0c-9.61863012 0-17.41412883-7.7719021-17.41412883-17.39053222 0-9.59503353 7.7954987-17.39053223 17.41412883-17.39053223L791.06934587 863.88535994l0-18.97148872-37.7057723 0c-9.59627506 0-17.38928947-7.7954987-17.38928947-17.39053222 0-9.61738737 7.79301441-17.41288607 17.38928947-17.41288607L777.78085874 810.11045171l-26.64776409-26.67384498c-6.78954781-6.78830626-6.78954781-17.79787973 0-24.58618599 6.78830626-6.81066011 17.82271788-6.81066011 24.586186 0l32.95669148 32.93433643 32.9566915-32.93433643c6.81066011-6.81066011 17.82271788-6.81066011 24.6097826 0 6.81190164 6.78830626 6.81190164 17.79787973 0 24.58618599l-26.67260222 26.67384498 24.00993765 0c9.61738737 0 17.39053223 7.7954987 17.39053222 17.41288607 0 9.59503353-7.77314365 17.39053223-17.39053222 17.39053224l-37.68341845 0 0 18.97148871L862.02117538 863.88535994z" p-id="1805"></path></svg>