<?xml version="1.0" standalone="no"?><!DOCTYPE svg PUBLIC "-//W3C//DTD SVG 1.1//EN" "http://www.w3.org/Graphics/SVG/1.1/DTD/svg11.dtd"><svg t="1624695117417" class="icon" viewBox="0 0 1024 1024" version="1.1" xmlns="http://www.w3.org/2000/svg" p-id="2594" xmlns:xlink="http://www.w3.org/1999/xlink" width="200" height="200"><defs><style type="text/css"></style></defs><path d="M553.06922667 856.57372445a234.66742557 234.66742557 0 0 1-13.25283556-136.0236089c-8.73813333 0-16.74808889-0.14563555-24.75804444 0.04854557-98.64381667 2.42725888-195.39436999-8.54395221-289.13512334-40.53523001-46.40919666-15.82572999-90.39113443-36.65161443-129.03310223-67.28362666-28.15620779-22.33078557-51.94334777-48.44809443-63.59419221-83.20644779A119.27552 119.27552 0 0 1 38.19899221 439.18222222a6.9419611 6.9419611 0 0 1 10.67994112-2.57289443c31.8456411 25.34058667 53.30261333 42.13722112 64.32237 50.38990222 2.71852999 2.03889778 6.69923555 18.59280555 18.68989667 31.55436999 21.84533333 23.59296 45.72956445 39.80705223 73.20613888 53.39970333 49.07918222 24.12695666 101.36234667 38.01088 155.15041223 46.7004689a797.59739221 797.59739221 0 0 0 220.05532444 5.00015332 15.29173333 15.29173333 0 0 0 8.83522333-4.80597334c37.23415666-42.91394333 83.59480889-69.75943111 139.90722446-78.98301554a224.23020999 224.23020999 0 0 1 83.78898887 1.84471666c5.38851555 1.16508445 9.46631111 0.43690667 13.59265224-3.30107221 11.21393778-10.29157888 23.30168889-22.28224 30.19510556-32.52527445 6.9419611-10.19448889 9.70903666-20.53461333 18.68989554-27.18530333 17.67044779-13.01011001 18.7384411-15.24318777 38.78760334-32.96218112 1.6990811-1.50490112 5.09724445-4.3205211 10.24303445-8.34977223a10.8741211 10.8741211 0 0 1 16.89372445 4.70888334c9.22358557 24.5153189 11.69939001 40.92359111 8.54395221 65.29327446s-19.70934557 55.92405333-40.19541333 78.88592554c23.73859555 19.02971221 42.81685333 41.26340779 57.67168 67.04090112 57.76876999 100.48853333 30.34074112 229.81290667-63.3029211 298.60143332a231.41489778 231.41489778 0 0 1-265.2994378 7.18468778c-4.75742777-3.10689223-9.85467221-6.06814777-13.78683222-10.09739889-5.87396779-5.97105778-12.28193223-6.31087445-20.00061667-5.24288-56.84641223 7.67013888-113.93555001 8.98085888-171.17032221 5.77687779a801.38391666 801.38391666 0 0 1-169.51978666-27.28239445c-45.14702222-12.52465778-88.59496334-29.07856555-128.9845578-52.96279666-33.88453888-20.09770667-64.71073223-43.88484779-86.26479331-77.47811555-27.71930112-43.20521443-29.85528889-87.4298789-5.72833223-132.09144889a6.06814777 6.06814777 0 0 1 9.90321778-1.16508445c25.87458333 29.12711111 45.38974777 48.15682333 58.54549333 57.28331776 4.27197667 2.91271111 6.69923555 12.96156445 9.70903665 18.10735446 6.21378333 10.82557667 10.58284999 16.35972779 20.00061668 25.53476778 21.21424555 20.77733888 46.60337778 35.19525888 73.35177444 47.38009998 53.49679445 24.36968334 110.05193443 37.86524445 168.11197667 45.43829334 50.68117333 6.69923555 101.55652779 8.73813333 152.62606223 5.72833223 5.6312411-0.33981667 11.26248334-0.97090333 17.57335665-1.50490112z m218.98732999-126.70293334h-73.59449999c-23.44732445 0.19418112-41.89449443 17.52481223-42.08867555 39.51578112-0.19418112 23.49587001 17.86462777 41.50613333 42.23431111 41.55467776 48.83645667 0.14563555 97.67291221 0.14563555 146.50936889-0.09708999 5.6312411 0 11.55375445-0.9223589 16.74808889-2.91271111a40.38959445 40.38959445 0 1 0-14.70919111-78.01211222c-25.04931555-0.19418112-50.05008555 0-75.09940224-0.04854556zM488.89249223 26.54814777c78.06065778 1.31072 154.81059555 10.29157888 229.8614511 31.60291556 47.86555221 13.59265223 93.83784334 31.8456411 135.92651889 58.73967445 28.15620779 17.9617189 53.59388445 39.03032889 72.62359666 66.79817443 35.04962333 51.21516999 33.10781667 107.57612999-5.04869888 156.80094891-27.62220999 35.58362112-63.88546333 60.24457443-103.64396999 80.24519111-58.64258333 29.41838222-121.12023666 46.70046777-185.68533334 57.23477334a897.06647666 897.06647666 0 0 1-219.03587555 8.2526811c-83.69189888-6.89341667-165.00508445-23.9813211-241.60938667-59.61348779-36.99143111-17.18499555-71.36142222-38.35069667-100.00308224-67.81762333-21.79678777-22.42787555-38.44778667-47.86555221-43.83630222-79.27428778-6.60214557-38.54487666 4.56324779-72.42941667 27.96202667-102.81870222 28.30184334-36.70016 65.82727111-61.70092999 106.84795335-81.84718222 70.14779221-34.41853667 144.90737778-52.67152555 222.19131221-60.87566223 34.36999111-3.64088889 68.93416334-5.00015445 103.44979001-7.42741333z m-6.89341668 370.49685333c70.73033443-0.19418112 132.23708445-6.60214557 192.72438557-21.79678777 45.92374557-11.55375445 90.19695445-27.37948445 130.44091221-52.91425223 17.62190222-11.16539221 33.88453888-23.9813211 45.97229-41.26340665 11.60229888-16.50536334 11.84502557-28.88438557-0.24272555-45.09847779a144.71319666 144.71319666 0 0 0-22.37932999-23.88423111c-31.79709667-26.79694222-69.12834333-43.59357667-108.15867336-56.79786667-67.13799111-22.62205667-136.46051555-32.768-207.19084998-34.80689778-71.89541888-2.08744334-142.91702557 4.51470222-212.67645668 22.28224-46.40919666 11.79648-90.97367666 28.25329778-131.21763556 54.85606002-15.58300445 10.29157888-29.95237888 22.03951445-40.97213554 37.33124665-12.76738333 17.62190222-13.1072 30.09801443 0.29127112 47.33155556 7.28177778 9.32067555 15.68009443 18.01026333 24.85513443 25.43767779 32.47672889 26.31148999 70.19633778 42.81685333 109.51793778 55.72987221 73.88577223 24.17550222 150.05316779 33.44763221 219.03587555 33.59326777z" p-id="2595"></path></svg>