<?xml version="1.0" standalone="no"?><!DOCTYPE svg PUBLIC "-//W3C//DTD SVG 1.1//EN" "http://www.w3.org/Graphics/SVG/1.1/DTD/svg11.dtd"><svg t="1628357164650" class="icon" viewBox="0 0 1024 1024" version="1.1" xmlns="http://www.w3.org/2000/svg" p-id="3497" xmlns:xlink="http://www.w3.org/1999/xlink" width="200" height="200"><defs><style type="text/css"></style></defs><path d="M809.23799211 998.83927325H222.79546766c-46.22149746 0-83.71097373-36.09235342-83.71097486-80.45101967V596.81703026h-41.79727246c-32.94882589 0-62.17198933-17.81332309-76.02679581-46.57077817-13.85480647-28.75745507-9.31415609-61.58985443 11.99197526-85.80665913L453.78652729 42.39191495c14.20408718-16.29977259 37.48947627-26.66177081 62.28841586-26.66177081 24.68251193 0 47.96790101 10.36199822 63.91839288 28.52460203l148.4443557 148.91006293c15.95049187 16.0669184 15.36835698 41.44799289-1.28069632 56.81634987-16.76547982 15.36835698-43.19439645 14.78622208-59.26131484-1.28069632L517.70492018 98.04399502 95.54081565 518.22884181l43.54367715-1.86283122c46.22149746 0 83.71097373 36.09235342 83.71097486 80.45101967v321.68764985h586.32609792V596.81703026c0-44.35866624 37.60590393-80.45101966 83.71097373-80.45101967h41.7972736L790.14397269 371.29803662c-15.95049187-16.0669184-15.36835698-41.44799289 1.28069632-56.81634987 16.76547982-15.36835698 43.31082411-14.78622208 59.26131598 1.28069632l146.3486703 146.9308052c23.0525349 25.96320939 27.59318642 58.91203413 13.73837994 87.55306382-13.85480647 28.75745507-42.96154339 46.57077817-76.0267958 46.57077817h-41.7972736v321.68764985c0 44.35866624-37.60590393 80.334592-83.71097372 80.33459314z" p-id="3498"></path><path d="M577.66479758 978.34813099H454.36866219c-33.99666802 0-61.58985443-26.54534315-61.58985444-59.14488832v-207.23996331c0-32.59954517 27.70961294-59.14488832 61.58985444-59.14488832h123.29613539c33.99666802 0 61.58985443 26.54534315 61.58985444 59.14488832v207.12353565c0.11642653 32.7159717-27.59318642 59.26131485-61.58985444 59.26131598zM454.36866219 711.96327936v207.12353565h123.29613539V711.96327936H454.36866219z" p-id="3499"></path></svg>