<?xml version="1.0" standalone="no"?><!DOCTYPE svg PUBLIC "-//W3C//DTD SVG 1.1//EN" "http://www.w3.org/Graphics/SVG/1.1/DTD/svg11.dtd"><svg t="1624695114458" class="icon" viewBox="0 0 1024 1024" version="1.1" xmlns="http://www.w3.org/2000/svg" p-id="2463" xmlns:xlink="http://www.w3.org/1999/xlink" width="200" height="200"><defs><style type="text/css"></style></defs><path d="M487.97013333 490.6401189c-105.73141333-2.03889778-208.50156999-17.57335666-306.07739221-59.80766891-41.84595001-18.10735445-80.39082667-41.50613333-112.13937778-75.0994011-58.20567666-61.50675001-57.42895445-137.72268999 2.37871332-198.06435556 36.06907221-36.45743445 79.46846777-61.60384 126.94566001-79.41992334 166.80125667-62.67183445 336.80649443-65.63308999 508.2680889-23.54441444 56.70077667 13.88392334 110.73156779 35.92343666 158.8883911 70.19633778 32.13691221 22.91332779 59.95330333 49.66172445 75.14794667 86.99297224 16.99081443 41.65176889 10.67994112 81.07045888-13.44701667 118.01334442-22.57351111 34.66126222-54.51624334 59.32221667-89.90568334 79.37137778-72.18668999 40.87504555-150.82988999 61.89511111-232.43434667 71.99251001-38.98178333 4.8545189-78.40047445 6.35941888-117.62498333 9.36922112z m1.94180779-93.54657223c75.34212779-1.11653888 150.78134557-9.80612779 223.89039331-33.78744889 39.95268779-13.1072 78.93447111-29.12711111 111.07138447-56.65223111 43.59357667-37.37979221 46.74901333-57.08913778 0.33981553-96.75055446-32.71945443-27.96202667-71.84687445-44.46739001-112.38210332-57.28331776-115.7317211-36.45743445-233.74506667-41.99158557-353.02058666-22.91332778-66.21563221 10.58284999-130.53800334 28.35038777-187.48150557 65.48745443-16.01991111 10.43721443-30.38928555 24.17550222-43.10812445 38.5448778-14.85482667 16.74808889-14.22373888 31.0689189-0.48545109 48.44809443 7.71868445 9.66049223 15.87427555 20.09770667 26.2144 26.2144 28.49602333 16.99081443 57.08913778 34.85544334 87.76969444 47.04028445 78.78883555 31.16600889 161.84964779 40.48668445 247.19208334 41.65176889z m-426.22672669 275.39683555a254339.68184889 254339.68184889 0 0 1 50.77826447 45.34120335 14.12664889 14.12664889 0 0 1 4.17488555 6.0196022c8.39831666 28.4474789 30.38928555 45.00138667 53.64243 59.71057778C236.7488 824.43681223 308.88694557 843.56361443 383.64652999 851.81629667c47.38010112 5.24288 95.39128889 4.80597333 143.11120668 6.5536 7.76723001 0.29127111 15.63155001-1.21363001 25.68040221-2.08744334-17.47626667-45.04993223-20.53461333-90.0513189-12.71883776-138.25668778-39.61287111 0-77.47811555 1.89326222-115.05208889-0.3883611-91.7504-5.48560555-180.44245333-24.61240889-263.50326556-65.34181888-36.89434112-18.10735445-70.53615445-41.0206811-97.9156389-72.33232669-28.78729443-32.86508999-40.97213667-72.13814557-35.24380444-109.1781211a26.36003555 26.36003555 0 0 1 41.74886001-17.13644999l7.33032221 5.43705998c12.62174777 9.27212999 22.33078557 18.30153443 34.85544334 27.67075556 1.45635555 1.11653888 8.05850112 8.54395221 8.7866789 10.24303445 7.28177778 17.28208555 29.80674333 41.74885888 54.46769778 57.18622777 56.70077667 35.43798557 119.90660779 52.76861667 185.15133553 63.49710222 71.65269333 11.74793443 143.69374777 14.51500999 215.83189333 5.04870002a28.93292999 28.93292999 0 0 0 16.06845668-8.44686222c59.71057778-64.37091555 132.7710811-88.44932779 219.13296555-74.27413334 5.00015445 0.82526777 12.7188389-0.77672334 15.72864-4.27197668 11.16539221-13.01011001 20.87443001-27.33093888 31.16600889-41.11777222 2.91271111-3.83507001 5.43706112-8.05850112 8.93231445-11.26248221 15.04900779-13.93246777 30.29219555-27.67075555 45.4868389-41.45758891l0.14563555-0.14563555a19.80643555 19.80643555 0 0 1 31.89418667 7.76723001c12.81592889 34.70980779 8.73813333 86.75024555-34.95253333 136.02360888a242.14338333 242.14338333 0 0 1 73.20613888 101.79925334c57.04059221 151.6551589-62.23492779 316.56315221-224.23021 310.05809778-47.67137223-1.94180779-90.92513223-15.92282112-129.03310222-44.75866112a37.52542777 37.52542777 0 0 0-29.90383445-8.20413554c-109.85775445 13.39847111-218.79315001 8.49540779-326.22364445-19.61225558-55.14732999-14.41792-108.25576334-34.17580999-155.73295445-66.50690332-41.21486222-27.96202667-76.79848334-60.92420779-88.2066011-112.13937778a119.42115555 119.42115555 0 0 1 3.25252779-65.63308999 19.12680334 19.12680334 0 0 1 30.77764664-8.05850112z m667.15648 57.04059221c-11.94211555 0-21.84533333-0.14563555-31.65145998 0.04854557-24.85513443 0.53399666-43.01103445 17.4277211-43.35085112 40.00123221-0.33981667 22.81623666 18.64135111 40.68086557 43.98193777 41.21486222 9.80612779 0.19418112 19.6608 0 30.97182891 0 0 11.65084445-0.29127111 21.50551666 0 31.31164445 0.82526777 25.09786112 17.71899221 43.20521443 40.0983222 43.44794112 23.64150557 0.24272555 40.53523001-17.28208555 41.45758891-43.35084999 0.33981667-10.19448889 0-20.38897778 0-31.50582556 13.59265223 0 24.61240889 0.48545223 35.48652999-0.09709a40.77795555 40.77795555 0 0 0 39.3216-40.87504668c-0.14563555-21.94242333-17.13644999-39.17596445-39.90414222-40.00123222-10.82557667-0.43690667-21.69969778-0.09708999-34.95253334-0.09708998 0-12.42756779 0.48545223-23.30168889-0.04854556-34.03017558-1.26217443-24.32113778-17.71899221-40.68086557-40.63232-40.87504554-22.23369443-0.24272555-39.41868999 16.79663445-40.68086442 40.97213667-0.53399666 10.38867001-0.09708999 20.87443001-0.09709114 33.83599331z" p-id="2464"></path></svg>