<?xml version="1.0" standalone="no"?><!DOCTYPE svg PUBLIC "-//W3C//DTD SVG 1.1//EN" "http://www.w3.org/Graphics/SVG/1.1/DTD/svg11.dtd"><svg t="1628357090398" class="icon" viewBox="0 0 1024 1024" version="1.1" xmlns="http://www.w3.org/2000/svg" p-id="2335" xmlns:xlink="http://www.w3.org/1999/xlink" width="200" height="200"><defs><style type="text/css"></style></defs><path d="M925.99479523 118.49388715L98.00404082 118.49388715c-52.55045689 0-95.53506645 42.99508736-95.53506645 95.5362304l0 573.21971143c0 52.53997909 42.98460957 95.53506645 95.53506645 95.53506645l827.99075555 0c52.57024967 0 95.53506645-42.99508736 95.53506646-95.53506645L1021.52986169 214.02895246C1021.52986169 161.48781056 978.56504605 118.49388715 925.99479523 118.49388715M98.00404082 182.18431943l827.99075555 0c17.25368889 0 31.84579811 14.58978133 31.84579812 31.84579812l0 95.53506645L66.15824157 309.565184l0-95.53506645C66.15824157 196.77410077 80.76898077 182.18431943 98.00404082 182.18431943M925.99479523 819.09446315L98.00404082 819.09446315c-17.23506005 0-31.84579811-14.59094528-31.84579812-31.84579812L66.15824157 500.63298787l891.68118784 0 0 286.61567716C957.84059335 804.50351787 943.24848413 819.09446315 925.99479523 819.09446315M129.84867385 628.02433024l63.69043228 0 0 127.37853554L129.84867385 755.40286691 129.84867385 628.02433024zM257.2307035 628.02433024l63.68810325 0 0 127.37853554-63.68810325 0L257.2307035 628.02433024zM384.60923904 628.02433024l63.71022507 0 0 127.37853554-63.71022507 0L384.60923904 628.02433024z" p-id="2336"></path></svg>