<?xml version="1.0" standalone="no"?><!DOCTYPE svg PUBLIC "-//W3C//DTD SVG 1.1//EN" "http://www.w3.org/Graphics/SVG/1.1/DTD/svg11.dtd"><svg t="1628357188197" class="icon" viewBox="0 0 1024 1024" version="1.1" xmlns="http://www.w3.org/2000/svg" p-id="4159" xmlns:xlink="http://www.w3.org/1999/xlink" width="200" height="200"><defs><style type="text/css"></style></defs><path d="M332.86826667 1014.92811852h-18.32580742c-80.09955555 0-145.27146667-65.17191111-145.27146666-145.27146667V507.14548148c-90.17268148-59.83194075-138.47514075-167.35952592-121.48432592-276.70755556 14.92764445-96.84764445 81.67727408-179.61718518 174.27721481-216.02607407 15.4130963-6.06814815 32.88936297-4.12634075 46.72474074 5.2186074 13.71401482 9.34494815 21.9666963 24.87940741 21.9666963 41.50613334v142.35875556h66.14281481v-141.99466667c0-16.62672592 8.25268148-32.16118518 21.9666963-41.50613333 13.71401482-9.34494815 31.19028148-11.28675555 46.60337778-5.33997037C533.35988148 56.88888889 603.02222222 158.83377778 603.02222222 274.49268148c0 94.66311111-47.21019259 181.1949037-125.00385185 232.6528v362.51117037c0.12136297 80.09955555-65.05054815 145.27146667-145.1501037 145.27146667zM190.14542222 155.55697778c-22.57351111 25.12213333-37.86524445 56.31241482-43.08385185 90.17268147-11.89357037 77.06548148 26.45712592 152.67460741 95.39128888 187.86986667 16.74808889 8.61677037 27.30666667 25.85031111 27.30666667 44.78293333v391.2741926c0 24.63668148 20.02488889 44.66157037 44.66157038 44.66157037h18.3258074c24.63668148 0 44.78293333-20.02488889 44.78293333-44.66157037V478.38245925c0-18.81125925 10.55857778-36.16616297 27.30666667-44.78293333 60.19602963-30.82619259 97.57582222-91.7504 97.57582222-159.10684444 0-45.14702222-16.62672592-87.01724445-45.26838517-118.9357037v98.18263704c0 27.79211852-22.45214815 50.24426667-50.24426667 50.24426666H240.38968889c-27.79211852 0-50.24426667-22.45214815-50.24426667-50.24426666v-98.18263704zM827.05825185 1014.92811852h-69.54097777c-83.13362963 0-150.85416297-67.72053333-150.85416297-150.85416297V527.4130963c0-27.79211852 22.45214815-50.24426667 50.24426667-50.24426667h270.76077037c27.79211852 0 50.24426667 22.45214815 50.24426667 50.24426667v336.66085925c0 83.13362963-67.72053333 150.85416297-150.85416297 150.85416297z m-119.9066074-437.27075555v286.41659258c0 27.79211852 22.57351111 50.36562963 50.36562963 50.36562963h69.54097777c27.79211852 0 50.36562963-22.57351111 50.36562963-50.36562963v-286.41659258H707.15164445z" p-id="4160"></path><path d="M792.22708148 574.98737778c-27.79211852 0-50.24426667-22.45214815-50.24426666-50.24426667V60.04432592c0-27.79211852 22.45214815-50.24426667 50.24426666-50.24426667s50.24426667 22.45214815 50.24426667 50.24426667v464.69878519c0.12136297 27.79211852-22.45214815 50.24426667-50.24426667 50.24426667z" p-id="4161"></path></svg>