<?xml version="1.0" standalone="no"?><!DOCTYPE svg PUBLIC "-//W3C//DTD SVG 1.1//EN" "http://www.w3.org/Graphics/SVG/1.1/DTD/svg11.dtd"><svg t="1628357170779" class="icon" viewBox="0 0 1024 1024" version="1.1" xmlns="http://www.w3.org/2000/svg" p-id="3629" xmlns:xlink="http://www.w3.org/1999/xlink" width="200" height="200"><defs><style type="text/css"></style></defs><path d="M438.13333332 164.8c-19.79376 0-35.84-16.04624-35.84-35.84 0-19.79376 16.04624-35.84 35.84-35.84h514.08c15.29920001 0 28.35952 9.5872 33.50255999 23.07984 3.67135999 9.08992001 3.62208 19.64256-1.01471999 29.14800001L820.17653332 516.7488a8.96 8.96 0 0 1-8.1928 5.3312h-398.9216a8.96 8.96 0 0 0-7.86464 4.66480001l-72.8056 133.27999999a8.96 8.96 0 0 0 7.8624 13.2552H874.93333332c19.79376 0 35.84 16.04624 35.84 35.84 0 19.79376-16.04624 35.84-35.84 35.84H230.27253332c-9.89744 0-17.92000001-8.02256-17.92-17.92a17.92000001 17.92000001 0 0 1 2.31504-8.81104001l128.492-227.55711999a8.96 8.96 0 0 0 0.37632-8.064l-176.8368-395.38576a8.96 8.96 0 0 0-8.17824001-5.30208H67.41333333c-19.79376 0-35.84-16.04624-35.84000002-35.83999999 0-19.79376 16.04624-35.84 35.84000002-35.84000002h118.54303999a35.84 35.84 0 0 1 32.67712001 21.11872001L407.41173333 450.4h359.29039999a8.96 8.96 0 0 0 8.204-5.35808L897.94037332 164.8H438.13333332z m-92.96 848.96000001c-54.43312 0-98.56000001-44.12688-98.56-98.56000001s44.12688-98.56000001 98.56-98.56000001 98.56000001 44.12688 98.56 98.56000001-44.12688 98.56000001-98.56 98.56000001z m0-67.20000001c-17.31967999 0-31.36-14.04032-31.36000001-31.36s14.04032-31.36 31.36000001-31.36 31.36 14.04032 31.36 31.36-14.04032 31.36-31.36 31.36z m472.63999999 67.20000001c-54.43312 0-98.56000001-44.12688-98.55999999-98.56000001s44.12688-98.56000001 98.55999999-98.56000001 98.56000001 44.12688 98.56000001 98.56000001-44.12688 98.56000001-98.56000001 98.56000001z m0-67.20000001c-17.31967999 0-31.36-14.04032-31.35999999-31.36s14.04032-31.36 31.35999999-31.36 31.36 14.04032 31.36000001 31.36-14.04032 31.36-31.36000001 31.36z" p-id="3630"></path></svg>