<?xml version="1.0" standalone="no"?><!DOCTYPE svg PUBLIC "-//W3C//DTD SVG 1.1//EN" "http://www.w3.org/Graphics/SVG/1.1/DTD/svg11.dtd"><svg t="1628357104225" class="icon" viewBox="0 0 1024 1024" version="1.1" xmlns="http://www.w3.org/2000/svg" p-id="2594" xmlns:xlink="http://www.w3.org/1999/xlink" width="200" height="200"><defs><style type="text/css"></style></defs><path d="M838.17145837 195.99511703c-62.48008059-48.98573275-136.06729955-82.61905067-213.85124978-99.4593754-9.21144889-53.83054222-56.1109523-94.99564563-112.55565274-94.99564563-56.43499141 0-103.33328118 41.16388978-112.55686637 94.99564563-77.79608652 16.84153837-151.37116918 50.4748563-213.85003615 99.4593754-87.11676208 68.32006637-139.12443259 157.17717333-139.12443258 237.68208119 0 52.96765155 20.30645097 92.11812978 55.11334873 121.09596445l54.40822993 437.99165155c1.91874845 15.45071882 15.040512 27.0129683 30.59803022 27.0129683h650.82345245c15.55509097 0 28.67806815-11.56224948 30.59681659-27.0129683l54.40822992-437.99043792c34.80689778-28.9790483 55.115776-68.12952652 55.115776-121.09596445 0-80.50854875-52.01131141-169.36322845-139.12564622-237.68329482zM468.60667259 85.88250075c9.52456533-13.67275141 25.2847597-22.64511525 43.15666963-22.64511527 17.87190992 0 33.6321043 8.97236385 43.155456 22.64632889 5.93707615 8.49176652 9.47602015 18.80640475 9.47602015 29.98636088 0 11.99430163-4.19915852 22.98007703-11.010048 31.85777778-9.61922845 12.52223052-24.61240889 20.774912-41.62142815 20.774912s-32.00098608-8.25268148-41.62142814-20.774912c-6.81331675-8.87648711-11.02339792-19.86347615-11.02339793-31.85777778 0.00121363-11.17995615 3.55229392-21.49459437 9.48815644-29.9875745zM213.60488297 958.12661097l-44.90793719-361.51599408c4.22343111 1.44057837 8.64832475 1.63111822 13.0501594 1.15294814 2.56682667-0.24029867 5.13365333-0.48181097 7.58033067-1.343488l26.56877985-9.78670933 32.48036978 371.49324327H213.60488297z m85.30602666 0l-32.58959645-372.64619142 36.36641185 10.8911123a31.01673245 31.01673245 0 0 0 18.90470875-0.33496177l29.63683555-10.22118875 16.28933689 372.31122964H298.91090963z m177.02608592 0h-58.02970073L401.54514015 584.13814518l19.16685274 12.2346003a30.93906015 30.93906015 0 0 0 19.20447526-0.81555911l36.01931377-4.31688059v366.88751881z m129.68482134 0H530.92048592V584.04105482l34.01561126 11.75521659a30.82133808 30.82133808 0 0 0 18.9520403 0.38472059l38.07034785-11.42025482-16.33788208 373.36587379z m50.38868859 0l16.3961363-374.75669334 48.01604267 13.0501594a31.19392237 31.19392237 0 0 0 19.39380147-1.05585778l17.12674133-6.76598517-32.32259792 369.52837689H656.00929185z m153.91250963 0h-34.77048889l32.4196883-370.67889779 19.38166518 7.82062934c6.46500503 2.58988563 13.54410667 2.58988563 20.21057422 0.622592 0.720896-0.18932622 1.50004622-0.09466311 2.22094223-0.3847206l5.86425837-2.2039514-45.32663941 364.82434845z m27.19379911-425.27766756l-41.46608355-16.69590282c-7.31818667-2.97581985-15.48591408-2.97581985-22.82594608-0.09587674l-46.09365334 18.13526756-70.7097031-19.19112533c-5.56449185-1.48790992-11.44331378-1.43936475-16.96047407 0.23908503l-63.3769529 19.00058548-53.84389215-18.61586489a30.87352415 30.87352415 0 0 0-20.96545185 0.28763022l-48.69810251 18.37556623-68.28608475-19.14258015a31.0434323 31.0434323 0 0 0-18.3379437 0.52792889l-54.61333333 18.80761836-62.64756148-18.85616355a30.8795923 30.8795923 0 0 0-19.51516444 0.57647408l-43.77926164 16.07088355c-52.48948148-22.50069333-77.08975408-54.8864-77.08975408-98.59405748 0-107.85526518 129.20543763-235.28394903 297.8853926-275.10556444 16.95926045 41.93211733 58.04062341 71.63206163 105.971712 71.63206162 47.94201125 0 89.0100243-29.6999443 105.971712-71.67939318 168.66660503 39.86773333 297.88296533 167.29884445 297.88296533 275.15410963 0.00121363 44.09116445-25.07844267 76.66741097-78.50241896 99.16931793z" p-id="2595"></path><path d="M758.46633245 278.80592118l-56.84277097-28.40378785c-14.03198578-7.05361541-31.08833659-1.343488-38.11646578 12.71277037-7.01477925 14.01014045-1.33256533 31.09076385 12.70184771 38.09583408l56.84277096 28.44990577a28.55670518 28.55670518 0 0 0 12.69092504 2.97581986c10.41051497 0 20.44965925-5.75745897 25.44010429-15.68859023 7.01599289-14.05868563 1.31800178-31.13930903-12.71641125-38.141952zM493.39869867 305.28853333l-49.39108504 62.41818549c-9.73937778 12.33047703-7.65314845 30.17811437 4.653056 39.91870577a28.32854282 28.32854282 0 0 0 17.60733867 6.14096593c8.39710341 0 16.69711645-3.69428859 22.31136711-10.79523555l49.39351229-62.41818549c9.73937778-12.33047703 7.65193482-30.179328-4.65426962-39.9199194-12.31834075-9.73816415-30.179328-7.62766222-39.91991941 4.65548325zM299.76045037 249.15452208l-54.02350934 33.44156444c-13.33778963 8.25268148-17.46413037 25.76292978-9.19931258 39.10193303 5.38366103 8.73206518 14.68127763 13.48099792 24.1912794 13.48099793 5.09724445 0 10.27944297-1.39081955 14.9458489-4.26954903l54.0222957-33.488896c13.33778963-8.25268148 17.45199408-25.76535703 9.1871763-39.10193304-8.25025422-13.33900325-25.78598875-17.46413037-39.12377838-9.16290371z" p-id="2596"></path></svg>