<?xml version="1.0" standalone="no"?><!DOCTYPE svg PUBLIC "-//W3C//DTD SVG 1.1//EN" "http://www.w3.org/Graphics/SVG/1.1/DTD/svg11.dtd"><svg t="1628357185546" class="icon" viewBox="0 0 1024 1024" version="1.1" xmlns="http://www.w3.org/2000/svg" p-id="4027" xmlns:xlink="http://www.w3.org/1999/xlink" width="200" height="200"><defs><style type="text/css"></style></defs><path d="M89.9299552 637.80408854c23.43822187-69.17688853 98.39502187-112.8220448 170.21155627-98.98666667l186.50453333 35.90826667c43.4176 8.32853333 117.60071147 8.05546667 160.92728853-0.68266667l171.53137814-34.4064c72.36266667-14.5635552 146.6368 30.35591147 167.20782186 101.03466667l59.8016 205.34613333C1028.55111147 923.1132448 977.21457813 991.28888854 897.16053333 991.28888854H124.24533333c-81.2828448 0-130.6624-69.17688853-104.53902186-146.2272l70.22364373-207.2576z m86.1980448 29.21813333L105.9043552 874.32533334c-6.144 18.11342187-0.54613333 25.9868448 18.34097813 25.9868448h772.9152c19.4787552 0 27.0336-10.0124448 21.57226667-28.80853334l-59.8016-205.34613333c-7.3728-25.25866667-35.8627552-42.46186667-61.89511147-37.2736l-171.53137706 34.4519104c-54.93191147 11.0592-140.99342187 11.37777813-196.06186667 0.8192l-186.50453333-35.90826667c-27.12462187-5.23377813-57.9356448 12.74311147-66.81031147 38.82097814zM512 490.66666667a227.5555552 227.5555552 0 1 0 0-455.11111147 227.5555552 227.5555552 0 0 0 0 455.11111147z m0-91.02222187a136.53333333 136.53333333 0 1 1 0-273.06666666 136.53333333 136.53333333 0 0 1 0 273.06666666z" p-id="4028"></path><path d="M821.248 427.26968854A271.83786667 271.83786667 0 0 0 876.08888853 262.0643552a272.06542187 272.06542187 0 0 0-52.97493333-162.6567104 45.51111147 45.51111147 0 1 0-73.04533333 54.34026667A181.13422187 181.13422187 0 0 1 785.06666667 262.0643552c0 41.05102187-13.01617813 79.6444448-36.18133334 109.9548448a45.51111147 45.51111147 0 0 0 72.36266667 55.25048854z" p-id="4029"></path></svg>