<?xml version="1.0" standalone="no"?><!DOCTYPE svg PUBLIC "-//W3C//DTD SVG 1.1//EN" "http://www.w3.org/Graphics/SVG/1.1/DTD/svg11.dtd"><svg t="1624508865803" class="icon" viewBox="0 0 1024 1024" version="1.1" xmlns="http://www.w3.org/2000/svg" p-id="1037" xmlns:xlink="http://www.w3.org/1999/xlink" width="200" height="200"><defs><style type="text/css"></style></defs><path d="M924.8768 9.80005925c4.73315555 1.21362963 9.46631111 2.3058963 14.0781037 3.6408889 40.89931852 11.77220741 71.84687408 52.79288889 77.18684445 102.67306667 0.60681482 5.5826963 0.72817778 11.28675555 0.72817777 16.86945185V753.5122963c0 63.47282963-37.86524445 114.688-90.29404444 122.33386667-3.2768 0.48545185-6.5536 0.48545185-9.95176296 0.48545185-30.21937778 0-60.43875555-0.36408889-90.65813334 0.24272593-14.44219259 0.24272592-29.12711111-12.86447408-29.24847407-33.61754075-0.24272592-19.29671111 12.62174815-34.10299259 29.4912-34.10299259h88.35223704c26.33576297 0 45.99656297-24.15122963 45.99656296-55.7056-0.12136297-205.71022222-0.24272592-411.42044445 0.12136297-617.13066666 0-32.40391111-17.71899259-52.18607408-34.70980741-56.67650372-3.64088889-0.9709037-7.40314075-1.57771852-11.16539259-1.57771851-267.60533333-0.12136297-535.21066667-0.12136297-802.93736297 0-25.36485925 0-45.51111111 24.27259259-45.51111111 54.7346963V754.72592592c0 30.09801482 20.14625185 54.12788148 45.38974815 54.12788149 178.64628148 0 357.41392592 0.12136297 536.0602074-0.24272593 14.92764445 0 30.94755555 13.1072 30.4621037 38.22933334-0.72817778 32.40391111-0.24272592 64.80782222-0.36408888 97.33309629 0 1.45635555 0.24272592 2.91271111 0.36408888 4.97588148h5.70405927c16.99081482 0 33.98162963-0.12136297 50.97244445 0 14.32082963 0.12136297 26.09303703 12.98583703 27.67075555 29.61256296 1.69908148 17.47626667-7.03905185 32.88936297-21.11715555 37.0157037-1.09226667 0.36408889-2.18453333 0.48545185-3.2768 0.60681483-1.45635555 0.12136297-2.79134815 0.12136297-4.24770372 0.12136295-118.08616297 0.12136297-236.17232592 0.36408889-354.25848888 0.48545186-29.24847408 0-58.49694815-0.24272592-87.86678519-0.48545186-15.89854815-0.12136297-28.03484445-14.80628148-28.03484443-33.7389037 0-18.56853333 12.50038518-33.61754075 28.27757036-33.7389037 16.99081482-0.12136297 33.98162963 0 50.97244444 0h5.46133334v-72.69641481h-7.16041481c-76.45866667 0-153.0386963-0.48545185-229.49736297 0.12136296-46.60337778 0.36408889-92.23585185-39.56432592-100.97398519-102.79442963-0.48545185-3.51952592-0.84954075-7.03905185-1.33499259-10.55857778V122.78897778c0.36408889-1.82044445 0.72817778-3.64088889 0.9709037-5.46133333 6.06814815-49.51608889 28.76302222-83.25499259 67.8418963-100.6098963 8.13131852-3.64088889 16.99081482-4.73315555 25.60758519-7.03905185 273.67348148 0.12136297 547.2256 0.12136297 820.89908148 0.12136295zM620.74121482 948.7853037c0.24272592-1.21362963 0.36408889-1.69908148 0.36408888-2.30589629 0-21.84533333 0-43.69066667 0.12136297-65.536 0-4.73315555-2.42725925-4.49042963-4.97588149-4.49042963-68.57007408 0-137.26151111 0-205.83158518-0.12136296-4.00497778 0-5.09724445 1.69908148-4.97588148 6.31087407 0.12136297 20.14625185 0 40.2925037 0.12136296 60.56011852 0 1.82044445 0.24272592 3.64088889 0.36408889 5.58269629h214.81244445z" p-id="1038"></path><path d="M410.05511111 371.70441482c2.54862222-43.93339259 18.56853333-78.52183703 50.00154074-101.33807407 31.55437037-22.81623703 64.5650963-22.9376 98.54672593-5.21860742 0.60681482-5.5826963 1.09226667-10.67994075 1.69908147-15.77718518 5.82542222-50.00154075 41.02068148-92.59994075 82.2840889-101.45943704 56.91922963-12.25765925 110.4402963 33.01072592 120.02797037 99.88171852 0.84954075 5.94678518 1.33499259 12.01493333 1.33499259 17.96171852 0.12136297 72.21096297 0.12136297 144.42192592 0 216.63288888 0 19.78216297-11.89357037 34.22435555-28.03484444 34.22435556-16.384 0-28.39893333-14.44219259-28.39893334-34.46708148V268.90998518c0-31.67573333-22.57351111-57.40468148-48.54518518-55.46287407-25.2434963 1.82044445-43.81202963 26.33576297-43.81202963 57.89013334 0.12136297 128.03792592 0.12136297 256.07585185 0.24272593 384.11377777v6.18951111c2.42725925 0.24272592 4.49042963 0.48545185 6.67496296 0.48545185h112.3821037c15.17037037 0 27.30666667 12.01493333 29.24847407 28.88438519 1.94180741 16.74808889-6.31087408 32.40391111-19.6608 37.25842963-2.91271111 1.09226667-6.18951111 1.57771852-9.22358518 1.57771852-45.75383703 0.12136297-91.62903703 0-137.38287408 0H449.13398518c-52.79288889 0.12136297-105.46441482 0.36408889-158.2573037 0.36408889-17.11217778 0-29.12711111-14.44219259-29.12711111-34.83117038V481.05244445c0-58.37558518 37.62251852-110.4402963 85.92497778-119.2997926 20.14625185-3.76225185 39.44296297-0.9709037 58.13285926 8.73813333 0.84954075 0.48545185 1.69908148 0.84954075 2.66998518 1.3349926 0.36408889 0 0.72817778-0.12136297 1.57771852-0.12136296zM466.61025185 514.42725925c0 47.33155555 0 94.66311111-0.12136296 141.99466667 0 4.85451852 0.9709037 6.43223703 5.21860741 6.43223705 27.54939259-0.24272592 55.09878518-0.24272592 82.64817778 0 3.64088889 0 4.97588148-1.21362963 4.85451851-5.70405927-0.12136297-94.66311111 0-189.20485925-0.12136296-283.86797037 0-13.95674075-4.61179259-26.09303703-12.62174815-36.0448-13.47128889-16.86945185-33.49617778-21.60260741-52.18607407-12.62174815-16.62672592 8.00995555-27.79211852 28.64165925-27.79211852 51.33653334 0.12136297 46.11792592 0.12136297 92.23585185 0.12136296 138.47514073z m-56.06968888 148.06281483v-5.5826963-178.16082963c0-2.3058963 0-4.61179259-0.36408889-6.79632593-4.85451852-27.91348148-25.12213333-46.36065185-47.69564445-44.5402074-25.48622222 2.06317037-44.05475555 25.72894815-44.05475555 54.49197036v174.27721482c0 2.06317037 0.12136297 4.00497778 0.24272592 6.31087408h91.87176297z" p-id="1039"></path><path d="M620.74121482 948.7853037H405.80740741c-0.12136297-1.94180741-0.36408889-3.76225185-0.36408889-5.58269629 0-20.14625185 0.12136297-40.2925037-0.12136297-60.56011852 0-4.49042963 0.9709037-6.31087408 4.97588148-6.31087407 68.57007408 0.12136297 137.26151111 0.12136297 205.83158519 0.12136296 2.54862222 0 4.97588148-0.36408889 4.97588148 4.49042963-0.12136297 21.84533333-0.12136297 43.69066667-0.12136295 65.536 0.12136297 0.60681482-0.12136297 1.09226667-0.24272593 2.30589629z" p-id="1040"></path></svg>