<?xml version="1.0" standalone="no"?><!DOCTYPE svg PUBLIC "-//W3C//DTD SVG 1.1//EN" "http://www.w3.org/Graphics/SVG/1.1/DTD/svg11.dtd"><svg t="1628357124810" class="icon" viewBox="0 0 1024 1024" version="1.1" xmlns="http://www.w3.org/2000/svg" p-id="3238" xmlns:xlink="http://www.w3.org/1999/xlink" width="200" height="200"><defs><style type="text/css"></style></defs><path d="M827.693176 796.611765H263.710118a40.357647 40.357647 0 1 0 0 80.655059h563.983058a40.357647 40.357647 0 1 0 0-80.655059z m115.772236-600.606118v714.209882a33.069176 33.069176 0 0 1-33.129412 33.129412H184.801882a104.688941 104.688941 0 0 1-104.086588-106.194823 99.147294 99.147294 0 0 1 86.016-105.953883h661.323294a40.297412 40.297412 0 0 0 40.237177-40.237176V40.417882A40.297412 40.297412 0 0 0 828.054588 0H242.266353A242.748235 242.748235 0 0 0 0 242.447059v596.811294a181.368471 181.368471 0 0 0 2.951529 33.129412A173.537882 173.537882 0 0 0 166.791529 1024h743.424A113.965176 113.965176 0 0 0 1024 910.215529V196.306824a40.237176 40.237176 0 1 0-80.233412-0.120471zM242.447059 80.474353h545.370353v569.886118H166.731294a153.238588 153.238588 0 0 0-86.317176 26.925176V242.447059a162.153412 162.153412 0 0 1 162.032941-161.792z m585.788235 716.378353H264.131765a40.357647 40.357647 0 1 0 0 80.655059h563.983059a40.297412 40.297412 0 0 0 0.12047-80.474353z" p-id="3239"></path></svg>