<?xml version="1.0" standalone="no"?><!DOCTYPE svg PUBLIC "-//W3C//DTD SVG 1.1//EN" "http://www.w3.org/Graphics/SVG/1.1/DTD/svg11.dtd"><svg t="1628357117013" class="icon" viewBox="0 0 1024 1024" version="1.1" xmlns="http://www.w3.org/2000/svg" p-id="2976" xmlns:xlink="http://www.w3.org/1999/xlink" width="200" height="200"><defs><style type="text/css"></style></defs><path d="M350.18296889 204.41770667v210.49230222h614.90517333V188.36593778H427.46652445c-27.02336 0-53.27075555 5.63086222-77.28355556 16.05176889z m-64.72817778 45.69770666a193.78631111 193.78631111 0 0 0-23.85123556 31.45728l-81.1667911 133.33617778h105.01916444V250.11655111z m0 229.52163556H141.05031111l-57.54197333 94.50040889a129.45408 129.45408 0 0 0 110.58517333 196.77070222h770.99463111v-291.27111111H285.45706667z m142.01173334-355.99928889h537.62275555a64.72704 64.72704 0 0 1 64.72590222 64.72817778v582.54222222a64.72704 64.72704 0 0 1-64.72704 64.72590222H194.09351111A194.18112 194.18112 0 0 1 28.23054222 540.47971555l178.09635556-292.56590222a258.90816 258.90816 0 0 1 221.13962667-124.27491555zM26.54776889 900.36224h970.90446222a32.36295111 32.36295111 0 0 1 0 64.72817778H26.54776889a32.36295111 32.36295111 0 0 1 0-64.72817778z" p-id="2977"></path></svg>