<?xml version="1.0" standalone="no"?><!DOCTYPE svg PUBLIC "-//W3C//DTD SVG 1.1//EN" "http://www.w3.org/Graphics/SVG/1.1/DTD/svg11.dtd"><svg t="1624678252554" class="icon" viewBox="0 0 1024 1024" version="1.1" xmlns="http://www.w3.org/2000/svg" p-id="2297" xmlns:xlink="http://www.w3.org/1999/xlink" width="200" height="200"><defs><style type="text/css"></style></defs><path d="M851.3466558 8.26926775H177.72610608C101.45066836 8.26926775 50.62688869 71.63329143 50.62688869 147.67011987v582.94901793c0 76.03682843 50.82377967 139.40085212 127.09921739 139.4008521h673.72659831c76.27543772 0 127.09921739-63.36402369 127.09921739-139.4008521V147.67011987C978.4458732 71.63329143 927.64860567 8.26926775 851.3466558 8.26926775zM290.82691154 780.56801673a68.98459818 68.98459818 0 0 1-69.09064674-68.85203747 68.90506174 68.90506174 0 0 1 69.09064674-68.77250102 68.95808603 68.95808603 0 0 1 69.06413461 68.77250102 68.93157389 68.93157389 0 0 1-69.06413461 68.8785496z m440.12809926 0a68.98459818 68.98459818 0 0 1-69.09064675-68.85203747 68.90506174 68.90506174 0 0 1 69.09064675-68.77250102 68.95808603 68.95808603 0 0 1 69.09064675 68.77250102 68.98459818 68.98459818 0 0 1-69.09064675 68.8785496z m120.391645-290.7056568c0 21.73995792-16.38450486 50.66470681-38.09795063 50.66470681H215.82405671c-21.81949435 0-38.09795065-29.03079746-38.09795063-50.66470681V211.03414355c0-21.73995792 16.38450486-50.63819467 38.09795063-50.63819466h597.42464846c21.81949435 0 38.09795065 28.89823675 38.09795063 50.63819466v278.82821638zM304.82532346 933.3840136c0 47.21812811-32.07969399 82.34671866-79.43038282 82.34671865a85.63422448 85.63422448 0 0 1-85.76678521-85.50166377v-34.81044481h165.19716803v37.96538993z m571.9729904 0c0 47.21812811-32.07969399 82.34671866-79.43038283 82.34671865a85.63422448 85.63422448 0 0 1-85.7667852-85.50166377v-34.81044481h165.19716803v37.96538993z" p-id="2298"></path></svg>