<?xml version="1.0" standalone="no"?><!DOCTYPE svg PUBLIC "-//W3C//DTD SVG 1.1//EN" "http://www.w3.org/Graphics/SVG/1.1/DTD/svg11.dtd"><svg t="1624508862226" class="icon" viewBox="0 0 1024 1024" version="1.1" xmlns="http://www.w3.org/2000/svg" p-id="905" xmlns:xlink="http://www.w3.org/1999/xlink" width="200" height="200"><defs><style type="text/css"></style></defs><path d="M605.33333333 793.17333333l-30.82666666-30.82666666 12.26666666 12.26666666c10.98666667 9.81333333 27.84 9.38666667 38.4-1.17333333l-19.84 19.73333333zM482.13333333 917.12l-30.93333333-30.82666667 12.26666667 12.26666667c10.98666667 9.81333333 27.84 9.38666667 38.4-1.17333333L482.13333333 917.12zM112.74666667 546.88l30.82666666-30.82666667-12.26666666 12.26666667c-9.81333333 10.98666667-9.38666667 27.84 1.17333333 38.4l-19.73333333-19.84zM682.34666667 191.78666667c-82.45333333 0-149.33333333 66.88-149.33333334 149.33333333s66.88 149.33333333 149.33333334 149.33333333 149.33333333-66.88 149.33333333-149.33333333-66.88-149.33333333-149.33333333-149.33333333z m0 211.30666666c-34.24 0-61.97333333-27.73333333-61.97333334-61.97333333s27.73333333-61.97333333 61.97333334-61.97333333 61.97333333 27.73333333 61.97333333 61.97333333-27.73333333 61.97333333-61.97333333 61.97333333z" p-id="906"></path><path d="M1011.41333333 486.93333333V60.48c0-24.10666667-19.52-43.73333333-43.73333333-43.73333333H537.28c-13.86666667 0-26.24 6.50666667-34.24 16.53333333l-467.2 467.2c-22.08 26.66666667-22.18666667 65.28-0.42666667 92.05333333L435.2 992.42666667c26.98666667 22.82666667 66.56 22.82666667 93.54666667 0.10666666l28.05333333-28.05333333c17.06666667-17.06666667 17.06666667-44.69333333 0-61.76s-44.69333333-17.06666667-61.76 0L482.13333333 915.62666667 113.17333333 546.77333333l442.66666667-442.66666666h368.21333333v369.6L605.33333333 792.42666667 321.17333333 508.26666667c-17.06666667-17.06666667-44.69333333-17.06666667-61.76 0s-17.06666667 44.69333333 0 61.76l253.86666667 253.86666666 40.10666667 40.10666667c0.32 0.32 0.64 0.74666667 1.06666666 1.06666667 26.02666667 26.02666667 66.88 28.16 95.36 6.4l349.01333334-349.01333334c9.70666667-9.70666667 13.86666667-22.93333333 12.58666666-35.52z" p-id="907"></path></svg>